<?xml version="1.0" encoding="utf-8"?>
<!-- Generator: Adobe Illustrator 26.0.1, SVG Export Plug-In . SVG Version: 6.00 Build 0)  -->
<svg version="1.1" id="Capa_1" xmlns="http://www.w3.org/2000/svg" xmlns:xlink="http://www.w3.org/1999/xlink" x="0px" y="0px"
	 viewBox="0 0 894 175" style="enable-background:new 0 0 894 175;" xml:space="preserve">
<style type="text/css">
	.st0{fill:#003CA6;}
	.st1{fill:#13BFD6;}
</style>
<g transform="translate(0.000000,175.000000) scale(0.100000,-0.100000)">
	<path class="st0" d="M7634,1666c-17-8-41-27-53-42c-31-40-26-131,9-169c71-76,213-45,240,53C7861,1621,7746,1714,7634,1666z"/>
	<path class="st0" d="M1800,1292c-74-25-95-37-148-86c-77-71-117-152-132-267c-24-197,58-378,207-457c162-84,365-62,502,55
		c39,33,101,115,101,133c0,4-45,19-99,35l-100,28l-27-33c-58-69-162-89-244-47c-79,39-115,121-108,242c9,139,81,218,198,218
		c65,0,105-18,148-68l32-35l95,27c108,30,112,37,67,99s-119,121-181,145C2032,1312,1877,1317,1800,1292z"/>
	<path class="st0" d="M2774,1289c-28-10-69-35-91-54l-41-35l-7,50l-7,50h-99h-99V870V439l108,3l107,3l5,250c4,186,9,256,19,275
		c52,95,112,133,209,134h62v97c0,79-3,98-16,103C2894,1316,2825,1309,2774,1289z"/>
	<path class="st0" d="M4136,1290c-168-53-270-192-283-382c-18-252,125-437,364-471c196-29,393,71,468,236c94,205,24,471-151,573
		C4424,1311,4258,1329,4136,1290z M4385,1086c24-13,51-40,70-70c28-46,30-56,30-140c0-74-4-99-22-131c-39-74-105-115-183-115
		c-118,0-193,93-193,240C4086,1067,4229,1171,4385,1086z"/>
	<path class="st0" d="M5055,1297c-66-22-98-43-147-95c-81-86-118-190-118-332c0-272,177-459,416-437c68,7,159,44,189,77
		c28,31,34,24,22-22c-7-30-26-59-61-94c-62-62-141-92-263-101c-94-7-90-1-72-99c18-105,10-98,103-91c170,14,330,79,411,169
		c108,120,115,159,115,646v382h-99c-109,0-111-1-111-67v-35l-31,27c-68,57-127,78-224,82C5129,1309,5080,1305,5055,1297z M5335,1076
		c47-36,72-77,86-144c24-104-20-225-100-274c-54-34-144-32-198,4c-113,74-132,289-35,392c41,43,79,57,148,53
		C5285,1105,5305,1099,5335,1076z"/>
	<path class="st0" d="M6025,1290c-165-54-275-218-275-409c0-243,139-412,367-444c144-21,283,24,376,122c47,49,76,96,65,106
		c-1,1-43,14-92,28l-89,26l-26-28c-43-46-89-65-161-65c-36,0-76,6-90,13c-58,31-110,97-110,141c0,20,4,20,295,20h295l2,38
		c9,167-34,287-133,376c-71,64-141,88-264,93C6106,1309,6073,1306,6025,1290z M6212,1120c65-18,128-87,128-140c0-19-5-20-175-20
		c-120,0-175,3-175,11c0,47,67,123,126,144C6164,1132,6166,1132,6212,1120z"/>
	<path class="st0" d="M7035,1295c-21-8-58-27-81-44l-42-30l-7,40l-7,39h-99h-99V870V440h110h110v273c0,263,1,274,23,317
		c29,59,74,85,145,84c65-1,98-23,130-84c21-43,22-54,22-317V440h111h110l-3,318l-3,317l-29,63c-34,74-96,133-163,156
		C7206,1314,7089,1314,7035,1295z"/>
	<path class="st0" d="M8225,1297c-186-62-295-220-295-427c0-284,217-475,491-433c87,14,182,59,238,113c43,42,81,96,81,116
		c0,6-42,24-94,39l-95,28l-34-36c-42-45-92-67-152-67s-103,19-142,63c-42,48-58,98-57,183c0,56,5,81,28,127c62,128,213,152,312,50
		l42-43l96,27c53,16,96,32,96,37c0,18-63,106-98,137c-20,18-66,46-102,63c-58,27-77,31-170,33C8303,1309,8250,1305,8225,1297z"/>
	<path class="st0" d="M3167,898c91-222,165-412,165-423s-35-98-76-194c-42-96-76-176-76-178s50-2,110-1l111,3l249,594
		c138,327,250,596,250,598s-52,2-116,1l-117-3l-101-267c-56-147-105-267-110-268s-54,121-109,269l-100,271h-122h-122L3167,898z"/>
	<path class="st0" d="M7582,873l3-428h110h110l3,428l2,427h-115h-115L7582,873z"/>
	<path class="st0" d="M313,1048C190,925,87,815,83,802c-11-46,15-63,193-122l169-57l53-164c29-90,59-170,67-178s28-14,45-14
		c28,0,59,27,251,219c121,120,222,229,225,241c7,28-103,381-126,406c-19,20-359,137-399,137C542,1270,482,1217,313,1048z M693,1094
		c48-15,87-31,87-34s-69-74-153-158L475,750l-95,31c-52,18-97,34-100,36c-7,7,304,313,315,309C600,1124,644,1110,693,1094z M918,863
		l32-98L798,613c-84-84-155-153-158-153s-20,44-38,97l-32,98l152,152c84,84,155,153,158,153S900,916,918,863z"/>
</g>
<ellipse class="st1" cx="106.8" cy="13.3" rx="6.1" ry="11.9"/>
<ellipse class="st1" cx="106.8" cy="48" rx="6.1" ry="11.9"/>
<ellipse transform="matrix(4.208733e-02 -0.9991 0.9991 4.208733e-02 89.5265 153.3783)" class="st1" cx="124.8" cy="30" rx="6.1" ry="11.9"/>
<ellipse transform="matrix(4.208733e-02 -0.9991 0.9991 4.208733e-02 56.1403 118.5561)" class="st1" cx="89.9" cy="30" rx="6.1" ry="11.9"/>
</svg>
