<?xml version="1.0" encoding="UTF-8"?>
<svg id="Versiones" xmlns="http://www.w3.org/2000/svg" version="1.1" viewBox="0 0 1080 236.61">
  <defs>
    <style>
      .cls-1 {
        fill: #003da6;
      }

      .cls-1, .cls-2, .cls-3, .cls-4, .cls-5, .cls-6, .cls-7, .cls-8, .cls-9 {
        stroke-width: 0px;
      }

      .cls-2 {
        fill: #000;
      }

      .cls-3 {
        fill: #00bed6;
      }

      .cls-4 {
        fill: #00bed6;
      }

      .cls-5 {
        fill: #424242;
      }

      .cls-6 {
        fill: #888;
      }

      .cls-7 {
        fill: #003da6;
      }

      .cls-8 {
        fill: #b2b2b2;
      }

      .cls-9 {
        fill: #363636;
      }
    </style>
  </defs>
  <g id="AC_FAVICON" data-name="AC/FAVICON">
    <path class="cls-2" d="M598.71,732.55l-30.96-94.1c-.04-.12-.1-.23-.14-.34-.15-.42-.32-.83-.49-1.23-.13-.29-.25-.59-.39-.87-.2-.4-.42-.78-.64-1.15-.16-.28-.33-.55-.51-.82-.23-.35-.48-.67-.74-1-.21-.28-.43-.55-.66-.81-.25-.28-.51-.55-.78-.81-.27-.27-.54-.54-.83-.8-.26-.23-.53-.44-.8-.65-.33-.26-.66-.51-1-.74-.27-.18-.55-.34-.83-.51-.37-.22-.75-.44-1.14-.64-.29-.15-.59-.27-.89-.4-.4-.17-.79-.34-1.2-.48-.12-.04-.23-.1-.35-.14l-94.1-30.96c-6.43-2.12-13.42-.46-18.21,4.34l-113.05,113.05c-4.42,4.42-6.19,10.69-4.75,16.76.76,3.21,2.4,6.14,4.74,8.49h0c1.97,1.98,4.41,3.48,7.05,4.34l85.54,28.14,28.14,85.53c.87,2.64,2.36,5.08,4.34,7.05,2.33,2.33,5.26,3.97,8.49,4.74,1.4.33,2.8.49,4.19.49,4.67,0,9.17-1.83,12.58-5.24l113.05-113.05c4.79-4.79,6.45-11.77,4.34-18.2ZM461.14,708.43l-28.25,28.25-56.1-18.46,84.76-84.76,56.1,18.46-56.5,56.51ZM542.89,677.17l18.46,56.1-84.76,84.76-18.46-56.1,84.76-84.76Z"/>
    <g>
      <path class="cls-2" d="M631.51,470.57c-11.7,0-21.21,9.51-21.21,21.21v31.01c0,11.7,9.51,21.21,21.21,21.21s21.21-9.51,21.21-21.21v-31.01c0-11.7-9.51-21.21-21.21-21.21Z"/>
      <path class="cls-2" d="M631.51,596.38c-11.7,0-21.21,9.51-21.21,21.21v31.01c0,11.69,9.51,21.21,21.21,21.21s21.21-9.51,21.21-21.21v-31.01c0-11.69-9.51-21.21-21.21-21.21Z"/>
      <path class="cls-2" d="M709.91,548.98h-31.01c-11.7,0-21.21,9.51-21.21,21.21s9.51,21.21,21.21,21.21h31.01c11.7,0,21.21-9.51,21.21-21.21s-9.51-21.21-21.21-21.21Z"/>
      <path class="cls-2" d="M584.1,548.98h-31.01c-11.7,0-21.21,9.51-21.21,21.21s9.51,21.21,21.21,21.21h31.01c11.69,0,21.21-9.51,21.21-21.21s-9.51-21.21-21.21-21.21Z"/>
    </g>
  </g>
  <g id="EG_FAVICON" data-name="EG/FAVICON">
    <path class="cls-9" d="M-503.13,732.55l-30.96-94.1c-.04-.12-.1-.23-.14-.34-.15-.42-.32-.83-.49-1.23-.13-.29-.25-.59-.39-.87-.2-.4-.42-.78-.64-1.15-.16-.28-.33-.55-.51-.82-.23-.35-.48-.67-.74-1-.21-.28-.43-.55-.66-.81-.25-.28-.51-.55-.78-.81-.27-.27-.54-.54-.83-.8-.26-.23-.53-.44-.8-.65-.33-.26-.66-.51-1-.74-.27-.18-.55-.34-.83-.51-.37-.22-.75-.44-1.14-.64-.29-.15-.59-.27-.89-.4-.4-.17-.79-.34-1.2-.48-.12-.04-.23-.1-.35-.14l-94.1-30.96c-6.43-2.12-13.42-.46-18.21,4.34l-113.05,113.05c-4.42,4.42-6.19,10.69-4.75,16.76.76,3.21,2.4,6.14,4.74,8.49h0c1.97,1.98,4.41,3.48,7.05,4.34l85.54,28.14,28.14,85.53c.87,2.64,2.36,5.08,4.34,7.05,2.33,2.33,5.26,3.97,8.49,4.74,1.4.33,2.8.49,4.19.49,4.67,0,9.17-1.83,12.58-5.24l113.05-113.05c4.79-4.79,6.45-11.77,4.34-18.2ZM-640.7,708.43l-28.25,28.25-56.1-18.46,84.76-84.76,56.1,18.46-56.5,56.51ZM-558.95,677.17l18.46,56.1-84.76,84.76-18.46-56.1,84.76-84.76Z"/>
    <g>
      <path class="cls-6" d="M-470.33,470.57c-11.7,0-21.21,9.51-21.21,21.21v31.01c0,11.7,9.51,21.21,21.21,21.21s21.21-9.51,21.21-21.21v-31.01c0-11.7-9.51-21.21-21.21-21.21Z"/>
      <path class="cls-6" d="M-470.33,596.38c-11.7,0-21.21,9.51-21.21,21.21v31.01c0,11.69,9.51,21.21,21.21,21.21s21.21-9.51,21.21-21.21v-31.01c0-11.69-9.51-21.21-21.21-21.21Z"/>
      <path class="cls-6" d="M-391.92,548.98h-31.01c-11.7,0-21.21,9.51-21.21,21.21s9.51,21.21,21.21,21.21h31.01c11.7,0,21.21-9.51,21.21-21.21s-9.51-21.21-21.21-21.21Z"/>
      <path class="cls-6" d="M-517.73,548.98h-31.01c-11.7,0-21.21,9.51-21.21,21.21s9.51,21.21,21.21,21.21h31.01c11.69,0,21.21-9.51,21.21-21.21s-9.51-21.21-21.21-21.21Z"/>
    </g>
  </g>
  <g id="ORIGINAL_FAVICON" data-name="ORIGINAL/FAVICON">
    <path class="cls-1" d="M-1908.47,732.55l-30.96-94.1c-.04-.12-.1-.23-.14-.34-.15-.42-.32-.83-.49-1.23-.13-.29-.25-.59-.39-.87-.2-.4-.42-.78-.64-1.15-.16-.28-.33-.55-.51-.82-.23-.35-.48-.67-.74-1-.21-.28-.43-.55-.66-.81-.25-.28-.51-.55-.78-.81-.27-.27-.54-.54-.83-.8-.26-.23-.53-.44-.8-.65-.33-.26-.66-.51-1-.74-.27-.18-.55-.34-.83-.51-.37-.22-.75-.44-1.14-.64-.29-.15-.59-.27-.89-.4-.4-.17-.79-.34-1.2-.48-.12-.04-.23-.1-.35-.14l-94.1-30.96c-6.43-2.12-13.42-.46-18.21,4.34l-113.05,113.05c-4.42,4.42-6.19,10.69-4.75,16.76.76,3.21,2.4,6.14,4.74,8.49h0c1.97,1.98,4.41,3.48,7.05,4.34l85.54,28.14,28.14,85.53c.87,2.64,2.36,5.08,4.34,7.05,2.33,2.33,5.26,3.97,8.49,4.74,1.4.33,2.8.49,4.19.49,4.67,0,9.17-1.83,12.58-5.24l113.05-113.05c4.79-4.79,6.45-11.77,4.34-18.2ZM-2046.05,708.43l-28.25,28.25-56.1-18.46,84.76-84.76,56.1,18.46-56.5,56.51ZM-1964.29,677.17l18.46,56.1-84.76,84.76-18.46-56.1,84.76-84.76Z"/>
    <g>
      <path class="cls-3" d="M-1875.68,470.57c-11.7,0-21.21,9.51-21.21,21.21v31.01c0,11.7,9.51,21.21,21.21,21.21s21.21-9.51,21.21-21.21v-31.01c0-11.7-9.51-21.21-21.21-21.21Z"/>
      <path class="cls-3" d="M-1875.68,596.38c-11.7,0-21.21,9.51-21.21,21.21v31.01c0,11.69,9.51,21.21,21.21,21.21s21.21-9.51,21.21-21.21v-31.01c0-11.69-9.51-21.21-21.21-21.21Z"/>
      <path class="cls-3" d="M-1797.27,548.98h-31.01c-11.7,0-21.21,9.51-21.21,21.21s9.51,21.21,21.21,21.21h31.01c11.7,0,21.21-9.51,21.21-21.21s-9.51-21.21-21.21-21.21Z"/>
      <path class="cls-3" d="M-1923.08,548.98h-31.01c-11.7,0-21.21,9.51-21.21,21.21s9.51,21.21,21.21,21.21h31.01c11.69,0,21.21-9.51,21.21-21.21s-9.51-21.21-21.21-21.21Z"/>
    </g>
  </g>
  <g>
    <g>
      <g>
        <path class="cls-7" d="M-1919.04,157.17c-6.61,0-12.44-1.49-17.49-4.48-5.05-2.98-9-7.09-11.84-12.33-2.85-5.23-4.27-11.34-4.27-18.32s1.42-13.27,4.27-18.59c2.85-5.32,6.84-9.5,11.98-12.53,5.14-3.03,11.06-4.55,17.77-4.55,7.25,0,13.68,1.79,19.28,5.37,5.6,3.58,9.59,8.4,11.98,14.46l-16.25,4.68c-1.19-2.66-3.05-4.77-5.58-6.34-2.53-1.56-5.39-2.34-8.61-2.34s-6.04.83-8.47,2.48c-2.43,1.65-4.32,3.95-5.65,6.89-1.33,2.94-2,6.38-2,10.33,0,5.97,1.47,10.7,4.41,14.19,2.94,3.49,6.89,5.23,11.84,5.23,3.12,0,5.94-.73,8.47-2.2,2.52-1.47,4.52-3.58,5.99-6.34l16.11,4.82c-2.48,5.88-6.59,10.6-12.33,14.19-5.74,3.58-12.28,5.37-19.63,5.37Z"/>
        <path class="cls-7" d="M-1878.65,87.34h16.11l1.1,8.81c1.93-2.39,4.11-4.36,6.54-5.92,2.43-1.56,5.1-2.62,7.99-3.17,2.89-.55,5.99-.46,9.3.28v16.39c-2.39-.73-4.96-.92-7.71-.55-2.75.37-5.3,1.33-7.64,2.89-2.34,1.56-4.27,3.81-5.78,6.75-1.51,2.94-2.27,6.56-2.27,10.88v32.5h-17.63v-68.86Z"/>
        <path class="cls-7" d="M-1776.86,87.34h18.73l-39.91,92.76h-17.77l12.95-30.02-27.58-62.73h19.56l17.38,41.66,16.63-41.66Z"/>
        <path class="cls-7" d="M-1726.09,157.17c-6.7,0-12.67-1.45-17.9-4.34-5.23-2.89-9.34-6.98-12.33-12.26-2.98-5.28-4.48-11.5-4.48-18.66s1.51-13.54,4.54-18.87c3.03-5.32,7.23-9.43,12.6-12.33,5.37-2.89,11.36-4.34,17.97-4.34s12.6,1.45,17.97,4.34c5.37,2.89,9.62,6.98,12.74,12.26,3.12,5.28,4.68,11.5,4.68,18.66s-1.58,13.54-4.75,18.87c-3.17,5.33-7.46,9.43-12.88,12.33-5.42,2.89-11.48,4.34-18.18,4.34ZM-1726.09,141.33c2.84,0,5.53-.71,8.06-2.13,2.52-1.42,4.61-3.58,6.27-6.47,1.65-2.89,2.48-6.59,2.48-11.09s-.78-7.92-2.34-10.81c-1.56-2.89-3.6-5.05-6.13-6.47-2.53-1.42-5.26-2.13-8.19-2.13s-5.49.71-7.92,2.13c-2.43,1.42-4.39,3.58-5.85,6.47-1.47,2.89-2.2,6.59-2.2,11.09s.71,7.92,2.13,10.81c1.42,2.89,3.33,5.05,5.72,6.47,2.39,1.42,5.05,2.13,7.99,2.13Z"/>
      </g>
      <path class="cls-7" d="M-1992.72,137.5l-9.57-29.09s-.03-.07-.04-.11c-.05-.13-.1-.26-.15-.38-.04-.09-.08-.18-.12-.27-.06-.12-.13-.24-.2-.36-.05-.09-.1-.17-.16-.25-.07-.11-.15-.21-.23-.31-.07-.09-.13-.17-.2-.25-.08-.09-.16-.17-.24-.25-.08-.08-.17-.17-.26-.25-.08-.07-.16-.13-.25-.2-.1-.08-.2-.16-.31-.23-.08-.06-.17-.11-.26-.16-.12-.07-.23-.14-.35-.2-.09-.04-.18-.08-.28-.12-.12-.05-.24-.1-.37-.15-.04-.01-.07-.03-.11-.04l-29.09-9.57c-1.99-.65-4.15-.14-5.63,1.34l-34.95,34.95c-1.37,1.37-1.91,3.3-1.47,5.18.24.99.74,1.9,1.47,2.62h0c.61.61,1.36,1.07,2.18,1.34l26.44,8.7,8.7,26.44c.27.82.73,1.57,1.34,2.18.72.72,1.63,1.23,2.62,1.47.43.1.87.15,1.29.15,1.44,0,2.83-.57,3.89-1.62l34.95-34.95c1.48-1.48,2-3.64,1.34-5.63ZM-2035.25,130.05l-8.73,8.73-17.34-5.71,26.2-26.2,17.34,5.71-17.47,17.47ZM-2009.97,120.38l5.71,17.34-26.2,26.2-5.71-17.34,26.2-26.2Z"/>
      <g>
        <path class="cls-4" d="M-1982.58,56.52c-3.62,0-6.56,2.94-6.56,6.56v9.58c0,3.62,2.94,6.56,6.56,6.56s6.56-2.94,6.56-6.56v-9.58c0-3.62-2.94-6.56-6.56-6.56Z"/>
        <path class="cls-4" d="M-1982.58,95.41c-3.62,0-6.56,2.94-6.56,6.56v9.59c0,3.61,2.94,6.56,6.56,6.56s6.56-2.94,6.56-6.56v-9.59c0-3.61-2.94-6.56-6.56-6.56Z"/>
        <path class="cls-4" d="M-1958.34,80.76h-9.58c-3.62,0-6.56,2.94-6.56,6.56s2.94,6.56,6.56,6.56h9.58c3.62,0,6.56-2.94,6.56-6.56s-2.94-6.56-6.56-6.56Z"/>
        <path class="cls-4" d="M-1997.23,80.76h-9.58c-3.62,0-6.56,2.94-6.56,6.56s2.94,6.56,6.56,6.56h9.58c3.61,0,6.56-2.94,6.56-6.56s-2.94-6.56-6.56-6.56Z"/>
      </g>
    </g>
    <g>
      <path class="cls-4" d="M-1667.22,97.43c2.12-3.13,5.14-5.81,9.06-8.02,3.92-2.21,8.6-3.32,14.04-3.32,5.99,0,11.27,1.45,15.84,4.36,4.56,2.9,8.16,7.03,10.79,12.38,2.63,5.35,3.94,11.62,3.94,18.81s-1.34,13.32-4.01,18.67c-2.67,5.35-6.29,9.5-10.86,12.45-4.56,2.95-9.8,4.43-15.7,4.43-4.89,0-9.15-.92-12.79-2.76-3.64-1.84-6.48-4.1-8.5-6.78l-1.25,8.57h-16.04V56.63h17.7v41.21l-2.21-.42ZM-1632.64,121.63c0-5.72-1.5-10.37-4.49-13.97-3-3.6-6.89-5.39-11.69-5.39-2.95,0-5.65.76-8.09,2.28-2.44,1.52-4.4,3.71-5.88,6.57-1.48,2.86-2.21,6.36-2.21,10.51s.74,7.65,2.21,10.51c1.47,2.86,3.43,5.05,5.88,6.57,2.44,1.52,5.14,2.28,8.09,2.28,4.79,0,8.69-1.8,11.69-5.39,2.99-3.6,4.49-8.25,4.49-13.97Z"/>
      <path class="cls-4" d="M-1604.49,56.63h17.7v99.57h-17.7V56.63Z"/>
      <path class="cls-4" d="M-1532.82,156.2l-1.38-8.44c-2.31,2.95-4.91,5.23-7.81,6.85s-6.8,2.42-11.69,2.42c-4.61,0-8.64-.81-12.1-2.42-3.46-1.61-6.15-3.87-8.09-6.78-1.94-2.9-2.9-6.34-2.9-10.3,0-5.81,2.1-10.63,6.29-14.45,4.19-3.82,10.53-6.25,19.02-7.26l17.29-1.8v-4.98c0-2.03-.88-3.85-2.63-5.46-1.75-1.61-4.52-2.42-8.3-2.42-3.32,0-6.2.81-8.64,2.42-2.44,1.61-4.08,4.03-4.91,7.26l-15.35-5.53c2.03-6.18,5.62-10.93,10.79-14.25,5.16-3.32,11.48-4.98,18.95-4.98,9.13,0,16.04,2.31,20.74,6.91,4.7,4.61,7.05,10.6,7.05,17.98v45.22h-16.32ZM-1534.21,126.33l-14.93,1.66c-3.14.46-5.46,1.41-6.98,2.84-1.52,1.43-2.28,3.11-2.28,5.05s.81,3.71,2.42,5.05c1.61,1.34,3.8,2.01,6.57,2.01,3.22,0,5.97-.57,8.23-1.73,2.26-1.15,3.99-2.9,5.19-5.26,1.2-2.35,1.8-5.23,1.8-8.64v-.97Z"/>
      <path class="cls-4" d="M-1489.77,133.66c.46,2.31,1.38,4.06,2.77,5.26,1.38,1.2,2.92,2.05,4.63,2.56,1.7.51,3.43.76,5.19.76,3.23,0,5.74-.62,7.54-1.87,1.8-1.24,2.7-2.79,2.7-4.63,0-1.75-.62-3.09-1.87-4.01-1.25-.92-2.88-1.66-4.91-2.21-2.03-.55-4.1-1.15-6.22-1.8-2.49-.55-5.16-1.22-8.02-2.01-2.86-.78-5.53-1.91-8.02-3.39-2.49-1.47-4.54-3.39-6.15-5.74-1.61-2.35-2.42-5.32-2.42-8.92,0-4.33,1.17-8.11,3.53-11.34,2.35-3.23,5.62-5.74,9.82-7.54,4.2-1.8,9.06-2.7,14.59-2.7,6.55,0,12.08,1.38,16.6,4.15,4.52,2.76,7.79,6.73,9.82,11.89l-15.49,4.43c-.55-1.29-1.38-2.35-2.49-3.18-1.11-.83-2.44-1.43-4.01-1.8-1.57-.37-3.09-.55-4.56-.55-2.68,0-4.89.53-6.64,1.59-1.75,1.06-2.63,2.56-2.63,4.49,0,1.02.32,1.87.97,2.56.64.69,1.54,1.29,2.7,1.8,1.15.51,2.49.92,4.01,1.24,1.52.32,3.16.76,4.91,1.31,2.95.74,5.88,1.57,8.78,2.49,2.9.92,5.58,2.12,8.02,3.6,2.44,1.48,4.4,3.46,5.88,5.95,1.48,2.49,2.3,5.62,2.49,9.4,0,4.06-1.15,7.74-3.46,11.06-2.31,3.32-5.62,5.92-9.96,7.81-4.33,1.89-9.59,2.83-15.77,2.83-7.19,0-13.3-1.52-18.32-4.56-5.03-3.04-8.32-7.84-9.89-14.38l15.9-4.56Z"/>
      <path class="cls-4" d="M-1431.79,87.05v-19.36h18.12v19.36h15.21v15.63h-15.21v28.07c0,3.69.74,6.25,2.21,7.68,1.47,1.43,3.41,2.19,5.81,2.28,2.4.09,4.84-.05,7.33-.42v15.21c-4.33.92-8.53,1.22-12.59.9-4.06-.32-7.63-1.4-10.72-3.25-3.09-1.84-5.56-4.58-7.4-8.23-1.85-3.64-2.76-8.37-2.76-14.18v-28.07h-9.68v-15.63h9.68Z"/>
    </g>
  </g>
  <g>
    <g>
      <g>
        <path class="cls-5" d="M-764.65,157.17c-6.61,0-12.44-1.49-17.49-4.48-5.05-2.98-9-7.09-11.84-12.33-2.85-5.23-4.27-11.34-4.27-18.32s1.42-13.27,4.27-18.59c2.85-5.32,6.84-9.5,11.98-12.53,5.14-3.03,11.06-4.55,17.77-4.55,7.25,0,13.68,1.79,19.28,5.37,5.6,3.58,9.59,8.4,11.98,14.46l-16.25,4.68c-1.19-2.66-3.05-4.77-5.58-6.34-2.53-1.56-5.39-2.34-8.61-2.34s-6.04.83-8.47,2.48c-2.43,1.65-4.32,3.95-5.65,6.89-1.33,2.94-2,6.38-2,10.33,0,5.97,1.47,10.7,4.41,14.19,2.94,3.49,6.89,5.23,11.84,5.23,3.12,0,5.94-.73,8.47-2.2,2.52-1.47,4.52-3.58,5.99-6.34l16.11,4.82c-2.48,5.88-6.59,10.6-12.33,14.19-5.74,3.58-12.28,5.37-19.63,5.37Z"/>
        <path class="cls-5" d="M-724.26,87.34h16.11l1.1,8.81c1.93-2.39,4.11-4.36,6.54-5.92,2.43-1.56,5.1-2.62,7.99-3.17,2.89-.55,5.99-.46,9.3.28v16.39c-2.39-.73-4.96-.92-7.71-.55-2.75.37-5.3,1.33-7.64,2.89-2.34,1.56-4.27,3.81-5.78,6.75-1.51,2.94-2.27,6.56-2.27,10.88v32.5h-17.63v-68.86Z"/>
        <path class="cls-5" d="M-622.47,87.34h18.73l-39.91,92.76h-17.77l12.95-30.02-27.58-62.73h19.56l17.38,41.66,16.63-41.66Z"/>
        <path class="cls-5" d="M-571.7,157.17c-6.7,0-12.67-1.45-17.9-4.34-5.23-2.89-9.34-6.98-12.33-12.26-2.98-5.28-4.48-11.5-4.48-18.66s1.51-13.54,4.54-18.87c3.03-5.32,7.23-9.43,12.6-12.33,5.37-2.89,11.36-4.34,17.97-4.34s12.6,1.45,17.97,4.34c5.37,2.89,9.62,6.98,12.74,12.26,3.12,5.28,4.68,11.5,4.68,18.66s-1.58,13.54-4.75,18.87c-3.17,5.33-7.46,9.43-12.88,12.33-5.42,2.89-11.48,4.34-18.18,4.34ZM-571.7,141.33c2.84,0,5.53-.71,8.06-2.13,2.52-1.42,4.61-3.58,6.27-6.47,1.65-2.89,2.48-6.59,2.48-11.09s-.78-7.92-2.34-10.81c-1.56-2.89-3.6-5.05-6.13-6.47-2.53-1.42-5.26-2.13-8.19-2.13s-5.49.71-7.92,2.13c-2.43,1.42-4.39,3.58-5.85,6.47-1.47,2.89-2.2,6.59-2.2,11.09s.71,7.92,2.13,10.81c1.42,2.89,3.33,5.05,5.72,6.47,2.39,1.42,5.05,2.13,7.99,2.13Z"/>
      </g>
      <path class="cls-5" d="M-838.33,137.5l-9.57-29.09s-.03-.07-.04-.11c-.05-.13-.1-.26-.15-.38-.04-.09-.08-.18-.12-.27-.06-.12-.13-.24-.2-.36-.05-.09-.1-.17-.16-.25-.07-.11-.15-.21-.23-.31-.07-.09-.13-.17-.2-.25-.08-.09-.16-.17-.24-.25-.08-.08-.17-.17-.26-.25-.08-.07-.16-.13-.25-.2-.1-.08-.2-.16-.31-.23-.08-.06-.17-.11-.26-.16-.12-.07-.23-.14-.35-.2-.09-.04-.18-.08-.28-.12-.12-.05-.24-.1-.37-.15-.04-.01-.07-.03-.11-.04l-29.09-9.57c-1.99-.65-4.15-.14-5.63,1.34l-34.95,34.95c-1.37,1.37-1.91,3.3-1.47,5.18.24.99.74,1.9,1.47,2.62h0c.61.61,1.36,1.07,2.18,1.34l26.44,8.7,8.7,26.44c.27.82.73,1.57,1.34,2.18.72.72,1.63,1.23,2.62,1.47.43.1.87.15,1.29.15,1.44,0,2.83-.57,3.89-1.62l34.95-34.95c1.48-1.48,2-3.64,1.34-5.63ZM-880.86,130.05l-8.73,8.73-17.34-5.71,26.2-26.2,17.34,5.71-17.47,17.47ZM-855.58,120.38l5.71,17.34-26.2,26.2-5.71-17.34,26.2-26.2Z"/>
      <g>
        <path class="cls-8" d="M-828.19,56.52c-3.62,0-6.56,2.94-6.56,6.56v9.58c0,3.62,2.94,6.56,6.56,6.56s6.56-2.94,6.56-6.56v-9.58c0-3.62-2.94-6.56-6.56-6.56Z"/>
        <path class="cls-8" d="M-828.19,95.41c-3.62,0-6.56,2.94-6.56,6.56v9.59c0,3.61,2.94,6.56,6.56,6.56s6.56-2.94,6.56-6.56v-9.59c0-3.61-2.94-6.56-6.56-6.56Z"/>
        <path class="cls-8" d="M-803.95,80.76h-9.58c-3.62,0-6.56,2.94-6.56,6.56s2.94,6.56,6.56,6.56h9.58c3.62,0,6.56-2.94,6.56-6.56s-2.94-6.56-6.56-6.56Z"/>
        <path class="cls-8" d="M-842.84,80.76h-9.58c-3.62,0-6.56,2.94-6.56,6.56s2.94,6.56,6.56,6.56h9.58c3.61,0,6.56-2.94,6.56-6.56s-2.94-6.56-6.56-6.56Z"/>
      </g>
    </g>
    <g>
      <path class="cls-8" d="M-512.83,97.43c2.12-3.13,5.14-5.81,9.06-8.02,3.92-2.21,8.6-3.32,14.04-3.32,5.99,0,11.27,1.45,15.84,4.36,4.56,2.9,8.16,7.03,10.79,12.38,2.63,5.35,3.94,11.62,3.94,18.81s-1.34,13.32-4.01,18.67c-2.67,5.35-6.29,9.5-10.86,12.45-4.56,2.95-9.8,4.43-15.7,4.43-4.89,0-9.15-.92-12.79-2.76-3.64-1.84-6.48-4.1-8.5-6.78l-1.25,8.57h-16.04V56.63h17.7v41.21l-2.21-.42ZM-478.25,121.63c0-5.72-1.5-10.37-4.49-13.97-3-3.6-6.89-5.39-11.69-5.39-2.95,0-5.65.76-8.09,2.28-2.44,1.52-4.4,3.71-5.88,6.57-1.48,2.86-2.21,6.36-2.21,10.51s.74,7.65,2.21,10.51c1.47,2.86,3.43,5.05,5.88,6.57,2.44,1.52,5.14,2.28,8.09,2.28,4.79,0,8.69-1.8,11.69-5.39,2.99-3.6,4.49-8.25,4.49-13.97Z"/>
      <path class="cls-8" d="M-450.1,56.63h17.7v99.57h-17.7V56.63Z"/>
      <path class="cls-8" d="M-378.43,156.2l-1.38-8.44c-2.31,2.95-4.91,5.23-7.81,6.85s-6.8,2.42-11.69,2.42c-4.61,0-8.64-.81-12.1-2.42-3.46-1.61-6.15-3.87-8.09-6.78-1.94-2.9-2.9-6.34-2.9-10.3,0-5.81,2.1-10.63,6.29-14.45,4.19-3.82,10.53-6.25,19.02-7.26l17.29-1.8v-4.98c0-2.03-.88-3.85-2.63-5.46-1.75-1.61-4.52-2.42-8.3-2.42-3.32,0-6.2.81-8.64,2.42-2.44,1.61-4.08,4.03-4.91,7.26l-15.35-5.53c2.03-6.18,5.62-10.93,10.79-14.25,5.16-3.32,11.48-4.98,18.95-4.98,9.13,0,16.04,2.31,20.74,6.91,4.7,4.61,7.05,10.6,7.05,17.98v45.22h-16.32ZM-379.82,126.33l-14.93,1.66c-3.14.46-5.46,1.41-6.98,2.84-1.52,1.43-2.28,3.11-2.28,5.05s.81,3.71,2.42,5.05c1.61,1.34,3.8,2.01,6.57,2.01,3.22,0,5.97-.57,8.23-1.73,2.26-1.15,3.99-2.9,5.19-5.26,1.2-2.35,1.8-5.23,1.8-8.64v-.97Z"/>
      <path class="cls-8" d="M-335.38,133.66c.46,2.31,1.38,4.06,2.77,5.26,1.38,1.2,2.92,2.05,4.63,2.56,1.7.51,3.43.76,5.19.76,3.23,0,5.74-.62,7.54-1.87,1.8-1.24,2.7-2.79,2.7-4.63,0-1.75-.62-3.09-1.87-4.01-1.25-.92-2.88-1.66-4.91-2.21-2.03-.55-4.1-1.15-6.22-1.8-2.49-.55-5.16-1.22-8.02-2.01-2.86-.78-5.53-1.91-8.02-3.39-2.49-1.47-4.54-3.39-6.15-5.74-1.61-2.35-2.42-5.32-2.42-8.92,0-4.33,1.17-8.11,3.53-11.34,2.35-3.23,5.62-5.74,9.82-7.54,4.2-1.8,9.06-2.7,14.59-2.7,6.55,0,12.08,1.38,16.6,4.15,4.52,2.76,7.79,6.73,9.82,11.89l-15.49,4.43c-.55-1.29-1.38-2.35-2.49-3.18-1.11-.83-2.44-1.43-4.01-1.8-1.57-.37-3.09-.55-4.56-.55-2.68,0-4.89.53-6.64,1.59-1.75,1.06-2.63,2.56-2.63,4.49,0,1.02.32,1.87.97,2.56.64.69,1.54,1.29,2.7,1.8,1.15.51,2.49.92,4.01,1.24,1.52.32,3.16.76,4.91,1.31,2.95.74,5.88,1.57,8.78,2.49,2.9.92,5.58,2.12,8.02,3.6,2.44,1.48,4.4,3.46,5.88,5.95,1.48,2.49,2.3,5.62,2.49,9.4,0,4.06-1.15,7.74-3.46,11.06-2.31,3.32-5.62,5.92-9.96,7.81-4.33,1.89-9.59,2.83-15.77,2.83-7.19,0-13.3-1.52-18.32-4.56-5.03-3.04-8.32-7.84-9.89-14.38l15.9-4.56Z"/>
      <path class="cls-8" d="M-277.4,87.05v-19.36h18.12v19.36h15.21v15.63h-15.21v28.07c0,3.69.74,6.25,2.21,7.68,1.47,1.43,3.41,2.19,5.81,2.28,2.4.09,4.84-.05,7.33-.42v15.21c-4.33.92-8.53,1.22-12.59.9-4.06-.32-7.63-1.4-10.72-3.25-3.09-1.84-5.56-4.58-7.4-8.23-1.85-3.64-2.76-8.37-2.76-14.18v-28.07h-9.68v-15.63h9.68Z"/>
    </g>
  </g>
  <g>
    <g>
      <g>
        <path class="cls-2" d="M358.67,157.17c-6.61,0-12.44-1.49-17.49-4.48-5.05-2.98-9-7.09-11.84-12.33-2.85-5.23-4.27-11.34-4.27-18.32s1.42-13.27,4.27-18.59c2.85-5.32,6.84-9.5,11.98-12.53,5.14-3.03,11.06-4.55,17.77-4.55,7.25,0,13.68,1.79,19.28,5.37,5.6,3.58,9.59,8.4,11.98,14.46l-16.25,4.68c-1.19-2.66-3.05-4.77-5.58-6.34-2.53-1.56-5.39-2.34-8.61-2.34s-6.04.83-8.47,2.48c-2.43,1.65-4.32,3.95-5.65,6.89-1.33,2.94-2,6.38-2,10.33,0,5.97,1.47,10.7,4.41,14.19,2.94,3.49,6.89,5.23,11.84,5.23,3.12,0,5.94-.73,8.47-2.2,2.52-1.47,4.52-3.58,5.99-6.34l16.11,4.82c-2.48,5.88-6.59,10.6-12.33,14.19-5.74,3.58-12.28,5.37-19.63,5.37Z"/>
        <path class="cls-2" d="M399.06,87.34h16.11l1.1,8.81c1.93-2.39,4.11-4.36,6.54-5.92,2.43-1.56,5.1-2.62,7.99-3.17,2.89-.55,5.99-.46,9.3.28v16.39c-2.39-.73-4.96-.92-7.71-.55-2.75.37-5.3,1.33-7.64,2.89-2.34,1.56-4.27,3.81-5.78,6.75-1.51,2.94-2.27,6.56-2.27,10.88v32.5h-17.63v-68.86Z"/>
        <path class="cls-2" d="M500.85,87.34h18.73l-39.91,92.76h-17.77l12.95-30.02-27.58-62.73h19.56l17.38,41.66,16.63-41.66Z"/>
        <path class="cls-2" d="M551.62,157.17c-6.7,0-12.67-1.45-17.9-4.34-5.23-2.89-9.34-6.98-12.33-12.26-2.98-5.28-4.48-11.5-4.48-18.66s1.51-13.54,4.54-18.87c3.03-5.32,7.23-9.43,12.6-12.33,5.37-2.89,11.36-4.34,17.97-4.34s12.6,1.45,17.97,4.34c5.37,2.89,9.62,6.98,12.74,12.26,3.12,5.28,4.68,11.5,4.68,18.66s-1.58,13.54-4.75,18.87c-3.17,5.33-7.46,9.43-12.88,12.33-5.42,2.89-11.48,4.34-18.18,4.34ZM551.62,141.33c2.84,0,5.53-.71,8.06-2.13,2.52-1.42,4.61-3.58,6.27-6.47,1.65-2.89,2.48-6.59,2.48-11.09s-.78-7.92-2.34-10.81c-1.56-2.89-3.6-5.05-6.13-6.47-2.53-1.42-5.26-2.13-8.19-2.13s-5.49.71-7.92,2.13c-2.43,1.42-4.39,3.58-5.85,6.47-1.47,2.89-2.2,6.59-2.2,11.09s.71,7.92,2.13,10.81c1.42,2.89,3.33,5.05,5.72,6.47,2.39,1.42,5.05,2.13,7.99,2.13Z"/>
      </g>
      <path class="cls-2" d="M284.99,137.5l-9.57-29.09s-.03-.07-.04-.11c-.05-.13-.1-.26-.15-.38-.04-.09-.08-.18-.12-.27-.06-.12-.13-.24-.2-.36-.05-.09-.1-.17-.16-.25-.07-.11-.15-.21-.23-.31-.07-.09-.13-.17-.2-.25-.08-.09-.16-.17-.24-.25-.08-.08-.17-.17-.26-.25-.08-.07-.16-.13-.25-.2-.1-.08-.2-.16-.31-.23-.08-.06-.17-.11-.26-.16-.12-.07-.23-.14-.35-.2-.09-.04-.18-.08-.28-.12-.12-.05-.24-.1-.37-.15-.04-.01-.07-.03-.11-.04l-29.09-9.57c-1.99-.65-4.15-.14-5.63,1.34l-34.95,34.95c-1.37,1.37-1.91,3.3-1.47,5.18.24.99.74,1.9,1.47,2.62h0c.61.61,1.36,1.07,2.18,1.34l26.44,8.7,8.7,26.44c.27.82.73,1.57,1.34,2.18.72.72,1.63,1.23,2.62,1.47.43.1.87.15,1.29.15,1.44,0,2.83-.57,3.89-1.62l34.95-34.95c1.48-1.48,2-3.64,1.34-5.63ZM242.46,130.05l-8.73,8.73-17.34-5.71,26.2-26.2,17.34,5.71-17.47,17.47ZM267.74,120.38l5.71,17.34-26.2,26.2-5.71-17.34,26.2-26.2Z"/>
      <g>
        <path class="cls-2" d="M295.13,56.52c-3.62,0-6.56,2.94-6.56,6.56v9.58c0,3.62,2.94,6.56,6.56,6.56s6.56-2.94,6.56-6.56v-9.58c0-3.62-2.94-6.56-6.56-6.56Z"/>
        <path class="cls-2" d="M295.13,95.41c-3.62,0-6.56,2.94-6.56,6.56v9.59c0,3.61,2.94,6.56,6.56,6.56s6.56-2.94,6.56-6.56v-9.59c0-3.61-2.94-6.56-6.56-6.56Z"/>
        <path class="cls-2" d="M319.37,80.76h-9.58c-3.62,0-6.56,2.94-6.56,6.56s2.94,6.56,6.56,6.56h9.58c3.62,0,6.56-2.94,6.56-6.56s-2.94-6.56-6.56-6.56Z"/>
        <path class="cls-2" d="M280.48,80.76h-9.58c-3.62,0-6.56,2.94-6.56,6.56s2.94,6.56,6.56,6.56h9.58c3.61,0,6.56-2.94,6.56-6.56s-2.94-6.56-6.56-6.56Z"/>
      </g>
    </g>
    <g>
      <path class="cls-2" d="M610.49,97.43c2.12-3.13,5.14-5.81,9.06-8.02,3.92-2.21,8.6-3.32,14.04-3.32,5.99,0,11.27,1.45,15.84,4.36,4.56,2.9,8.16,7.03,10.79,12.38,2.63,5.35,3.94,11.62,3.94,18.81s-1.34,13.32-4.01,18.67c-2.67,5.35-6.29,9.5-10.86,12.45-4.56,2.95-9.8,4.43-15.7,4.43-4.89,0-9.15-.92-12.79-2.76-3.64-1.84-6.48-4.1-8.5-6.78l-1.25,8.57h-16.04V56.63h17.7v41.21l-2.21-.42ZM645.07,121.63c0-5.72-1.5-10.37-4.49-13.97-3-3.6-6.89-5.39-11.69-5.39-2.95,0-5.65.76-8.09,2.28-2.44,1.52-4.4,3.71-5.88,6.57-1.48,2.86-2.21,6.36-2.21,10.51s.74,7.65,2.21,10.51c1.47,2.86,3.43,5.05,5.88,6.57,2.44,1.52,5.14,2.28,8.09,2.28,4.79,0,8.69-1.8,11.69-5.39,2.99-3.6,4.49-8.25,4.49-13.97Z"/>
      <path class="cls-2" d="M673.22,56.63h17.7v99.57h-17.7V56.63Z"/>
      <path class="cls-2" d="M744.89,156.2l-1.38-8.44c-2.31,2.95-4.91,5.23-7.81,6.85s-6.8,2.42-11.69,2.42c-4.61,0-8.64-.81-12.1-2.42-3.46-1.61-6.15-3.87-8.09-6.78-1.94-2.9-2.9-6.34-2.9-10.3,0-5.81,2.1-10.63,6.29-14.45,4.19-3.82,10.53-6.25,19.02-7.26l17.29-1.8v-4.98c0-2.03-.88-3.85-2.63-5.46-1.75-1.61-4.52-2.42-8.3-2.42-3.32,0-6.2.81-8.64,2.42-2.44,1.61-4.08,4.03-4.91,7.26l-15.35-5.53c2.03-6.18,5.62-10.93,10.79-14.25,5.16-3.32,11.48-4.98,18.95-4.98,9.13,0,16.04,2.31,20.74,6.91,4.7,4.61,7.05,10.6,7.05,17.98v45.22h-16.32ZM743.5,126.33l-14.93,1.66c-3.14.46-5.46,1.41-6.98,2.84-1.52,1.43-2.28,3.11-2.28,5.05s.81,3.71,2.42,5.05c1.61,1.34,3.8,2.01,6.57,2.01,3.22,0,5.97-.57,8.23-1.73,2.26-1.15,3.99-2.9,5.19-5.26,1.2-2.35,1.8-5.23,1.8-8.64v-.97Z"/>
      <path class="cls-2" d="M787.93,133.66c.46,2.31,1.38,4.06,2.77,5.26,1.38,1.2,2.92,2.05,4.63,2.56,1.7.51,3.43.76,5.19.76,3.23,0,5.74-.62,7.54-1.87,1.8-1.24,2.7-2.79,2.7-4.63,0-1.75-.62-3.09-1.87-4.01-1.25-.92-2.88-1.66-4.91-2.21-2.03-.55-4.1-1.15-6.22-1.8-2.49-.55-5.16-1.22-8.02-2.01-2.86-.78-5.53-1.91-8.02-3.39-2.49-1.47-4.54-3.39-6.15-5.74-1.61-2.35-2.42-5.32-2.42-8.92,0-4.33,1.17-8.11,3.53-11.34,2.35-3.23,5.62-5.74,9.82-7.54,4.2-1.8,9.06-2.7,14.59-2.7,6.55,0,12.08,1.38,16.6,4.15,4.52,2.76,7.79,6.73,9.82,11.89l-15.49,4.43c-.55-1.29-1.38-2.35-2.49-3.18-1.11-.83-2.44-1.43-4.01-1.8-1.57-.37-3.09-.55-4.56-.55-2.68,0-4.89.53-6.64,1.59-1.75,1.06-2.63,2.56-2.63,4.49,0,1.02.32,1.87.97,2.56.64.69,1.54,1.29,2.7,1.8,1.15.51,2.49.92,4.01,1.24,1.52.32,3.16.76,4.91,1.31,2.95.74,5.88,1.57,8.78,2.49,2.9.92,5.58,2.12,8.02,3.6,2.44,1.48,4.4,3.46,5.88,5.95,1.48,2.49,2.3,5.62,2.49,9.4,0,4.06-1.15,7.74-3.46,11.06-2.31,3.32-5.62,5.92-9.96,7.81-4.33,1.89-9.59,2.83-15.77,2.83-7.19,0-13.3-1.52-18.32-4.56-5.03-3.04-8.32-7.84-9.89-14.38l15.9-4.56Z"/>
      <path class="cls-2" d="M845.92,87.05v-19.36h18.12v19.36h15.21v15.63h-15.21v28.07c0,3.69.74,6.25,2.21,7.68,1.47,1.43,3.41,2.19,5.81,2.28,2.4.09,4.84-.05,7.33-.42v15.21c-4.33.92-8.53,1.22-12.59.9-4.06-.32-7.63-1.4-10.72-3.25-3.09-1.84-5.56-4.58-7.4-8.23-1.85-3.64-2.76-8.37-2.76-14.18v-28.07h-9.68v-15.63h9.68Z"/>
    </g>
  </g>
</svg>