<svg xmlns="http://www.w3.org/2000/svg" version="1.1" xmlns:xlink="http://www.w3.org/1999/xlink" xmlns:svgjs="http://svgjs.dev/svgjs" width="1500" height="534" viewBox="0 0 1500 534"><g transform="matrix(1,0,0,1,-0.9090909090909918,-0.16601780360576868)"><svg viewBox="0 0 396 141" data-background-color="#ffffff" preserveAspectRatio="xMidYMid meet" height="534" width="1500" xmlns="http://www.w3.org/2000/svg" xmlns:xlink="http://www.w3.org/1999/xlink"><g id="tight-bounds" transform="matrix(1,0,0,1,0.2400000000000091,0.043836161626245485)"><svg viewBox="0 0 395.52 140.91232767674754" height="140.91232767674754" width="395.52"><g><svg viewBox="0 0 658.639264407148 234.65410559999998" height="140.91232767674754" width="395.52"><g transform="matrix(1,0,0,1,263.1192644071479,32.37648124889206)"><svg viewBox="0 0 395.52 169.90114310221585" height="169.90114310221585" width="395.52"><g id="textblocktransform"><svg viewBox="0 0 395.52 169.90114310221585" height="169.90114310221585" width="395.52" id="textblock"><g><svg viewBox="0 0 395.52 169.90114310221585" height="169.90114310221585" width="395.52"><g transform="matrix(1,0,0,1,0,0)"><svg width="395.52" viewBox="64.77 -30.57 204.93 83.87" height="169.90114310221585" data-palette-color="#000000"><svg></svg><svg></svg><g class="wordmark-text-0" data-fill-palette-color="primary" id="text-0"><path transform="translate(62.33,0)" d="M26.76-2.25v0c0 1.367 0.193 2.15 0.58 2.35v0c0.233 0.093 0.543 0.14 0.93 0.14v0-9.22h-1.17c-1.66 5.367-4.98 8.067-9.96 8.1v0c-4.233 0-7.113-2.133-8.64-6.4v0c-0.753-2.08-1.13-4.537-1.13-7.37v0c0-6.087 1.677-10.22 5.03-12.4v0c1.467-0.913 3.097-1.37 4.89-1.37v0c4.067 0 7.01 1.92 8.83 5.76v0c0.327 0.687 0.603 1.387 0.83 2.1v0h1.18l-0.15-8.98c-0.72 0-1.16 0.227-1.32 0.68v0c-0.1 0.393-0.15 1.03-0.15 1.91v0c-0.94-0.947-2.55-1.713-4.83-2.3v0c-1.5-0.36-3.03-0.54-4.59-0.54v0c-5.14 0-9.08 1.907-11.82 5.72v0c-1.887 2.7-2.83 5.807-2.83 9.32v0c0 4.267 1.32 7.85 3.96 10.75v0c2.8 2.993 6.443 4.49 10.93 4.49v0c3.293-0.033 6.437-0.947 9.43-2.74zM42.87-1.22v0h-3.51v-9.72c0-2.96 0.91-5.337 2.73-7.13v0c0.713-0.68 1.317-1.037 1.81-1.07v0c0.553 0 1.057 0.407 1.51 1.22v0c0.52 0.913 1.01 1.433 1.47 1.56v0c0.193 0.067 0.387 0.1 0.58 0.1v0c0.98 0 1.6-0.473 1.86-1.42v0c0.06-0.193 0.09-0.387 0.09-0.58v0c0-1.467-0.747-2.363-2.24-2.69v0c-0.327-0.06-0.637-0.09-0.93-0.09v0c-1.953 0-3.693 0.83-5.22 2.49v0c-0.72 0.78-1.29 1.657-1.71 2.63v0l-0.2-4.83h-7.08v1.22h3.66v15.38c0 1.5-0.423 2.397-1.27 2.69v0c-0.487 0.16-1.283 0.24-2.39 0.24v0 1.22h12.06c0-0.713-0.243-1.103-0.73-1.17v0c-0.133-0.033-0.297-0.05-0.49-0.05zM54.69 7.76v0c-0.52 0-0.91-0.39-1.17-1.17v0c-0.36-0.973-0.703-1.573-1.03-1.8v0c-0.293-0.2-0.637-0.3-1.03-0.3v0c-1.04 0-1.64 0.457-1.8 1.37v0c-0.033 0.127-0.05 0.24-0.05 0.34v0c0 1.24 0.717 2.137 2.15 2.69v0c0.647 0.26 1.33 0.39 2.05 0.39v0c2.573 0 4.803-1.58 6.69-4.74v0c0.78-1.267 1.527-2.78 2.24-4.54v0l7.23-17.82c0.327-0.913 0.683-1.433 1.07-1.56v0c0.233-0.067 0.497-0.1 0.79-0.1v0c0.647 0 1.02-0.18 1.12-0.54v0c0.067-0.193 0.1-0.437 0.1-0.73v0h-7.42v1.27h3.56l-6.25 15.62-6.69-15.62h3.27v-1.27h-9.52v1.27h2.39l8.79 19.48c-1.82 4.3-3.53 6.79-5.13 7.47v0c-0.453 0.193-0.907 0.29-1.36 0.29zM79.39-10.4v0c0-5.047 1.383-8.123 4.15-9.23v0c0.72-0.26 1.47-0.39 2.25-0.39v0c3.613 0 5.713 2.28 6.3 6.84v0c0.1 0.78 0.15 1.64 0.15 2.58v0c0 5.473-1.5 8.68-4.5 9.62v0c-0.58 0.167-1.18 0.25-1.8 0.25v0c-3.287 0-5.353-1.953-6.2-5.86v0c-0.233-1.14-0.35-2.41-0.35-3.81zM85.94-21.24v0c-3.127 0-5.73 1.073-7.81 3.22v0c-1.927 1.987-2.89 4.46-2.89 7.42v0c0 4.107 1.5 7.183 4.5 9.23v0c1.82 1.24 3.837 1.86 6.05 1.86v0c3.127 0 5.713-1.107 7.76-3.32v0c1.893-2.02 2.84-4.543 2.84-7.57v0c0-4.1-1.513-7.143-4.54-9.13v0c-1.793-1.14-3.763-1.71-5.91-1.71zM104.69-13.53v0c0.067-4.293 1.693-6.457 4.88-6.49v0c3.193 0.067 4.803 2.23 4.83 6.49v0c-0.06 4.433-1.67 6.663-4.83 6.69v0c-3.22-0.06-4.847-2.29-4.88-6.69zM109.62-21.24v0c-2.933 0-5.26 0.943-6.98 2.83v0c-1.24 1.4-1.86 3.043-1.86 4.93v0c0 2.473 1.203 4.527 3.61 6.16v0c0.233 0.16 0.463 0.307 0.69 0.44v0c-2.087 0-3.39 0.893-3.91 2.68v0c-0.093 0.427-0.14 0.85-0.14 1.27v0c0.027 1.727 0.727 3.013 2.1 3.86v0c-1.08 1.14-1.62 2.293-1.62 3.46v0c0 1.793 1.06 3.13 3.18 4.01v0c1.333 0.587 2.977 0.88 4.93 0.88v0c4.947 0 8.217-1.207 9.81-3.62v0c0.52-0.813 0.78-1.673 0.78-2.58v0c0-2.8-1.61-4.413-4.83-4.84v0c-0.42-0.067-0.86-0.1-1.32-0.1v0l-8.88-0.19c-1.5-0.1-2.267-0.75-2.3-1.95v0c0-0.847 0.537-1.387 1.61-1.62v0c0.227-0.027 0.47-0.04 0.73-0.04v0l4.3 0.04c2.9 0 5.213-0.973 6.94-2.92v0c1.233-1.4 1.85-3.063 1.85-4.99v0c-0.033-2.44-0.977-4.39-2.83-5.85v0c0.293-1.047 0.847-1.667 1.66-1.86v0c0.127-0.033 0.257-0.05 0.39-0.05v0c0.453 0 0.94 0.243 1.46 0.73v0c0.36 0.327 0.687 0.49 0.98 0.49v0c0.813-0.193 1.287-0.713 1.42-1.56v0c0-1.007-0.473-1.69-1.42-2.05v0c-0.36-0.133-0.717-0.2-1.07-0.2v0c-1.533 0-2.77 0.683-3.71 2.05v0c-0.36 0.527-0.637 1.097-0.83 1.71v0c-1.467-0.747-3.047-1.12-4.74-1.12zM109.62 8.01v0c-3.22 0-5.253-0.847-6.1-2.54v0c-0.233-0.453-0.35-0.91-0.35-1.37v0c0.033-0.88 0.427-1.76 1.18-2.64v0c0.647 0.133 1.183 0.2 1.61 0.2v0l7.52 0.1c2.44 0.033 3.853 0.587 4.24 1.66v0c0.1 0.26 0.15 0.583 0.15 0.97v0c0 1.433-1.333 2.477-4 3.13v0c-1.307 0.327-2.723 0.49-4.25 0.49zM133.98-20.02v0c2.28 0 3.797 0.96 4.55 2.88v0c0.26 0.62 0.39 1.287 0.39 2v0c0 1.627-0.783 2.62-2.35 2.98v0c-0.813 0.167-1.967 0.233-3.46 0.2v0l-5.18-0.15c0.16-3.74 1.38-6.18 3.66-7.32v0c0.747-0.393 1.543-0.59 2.39-0.59zM142.48-4.69v0l-1.22-0.44c-1.14 2.473-2.98 3.873-5.52 4.2v0c-0.327 0.033-0.637 0.05-0.93 0.05v0c-3.413 0-5.56-2.033-6.44-6.1v0c-0.26-1.14-0.407-2.393-0.44-3.76v0l5.86 0.1c3.973 0.06 6.53-0.317 7.67-1.13v0c0.873-0.647 1.31-1.573 1.31-2.78v0c0-2.213-1.123-3.97-3.37-5.27v0c-1.593-0.947-3.43-1.42-5.51-1.42v0c-4.073 0-6.987 1.693-8.74 5.08v0c-0.913 1.753-1.37 3.737-1.37 5.95v0c0 4.04 1.45 7.037 4.35 8.99v0c1.72 1.14 3.687 1.71 5.9 1.71v0c3.52 0 6.11-1.27 7.77-3.81v0c0.26-0.453 0.487-0.91 0.68-1.37zM155.47-1.22v0h-2.2v-10.55c0.1-3.027 1.173-5.207 3.22-6.54v0c0.88-0.553 1.777-0.83 2.69-0.83v0c1.987 0 3.337 0.927 4.05 2.78v0c0.293 0.753 0.44 1.6 0.44 2.54v0 9.67c0 1.5-0.423 2.397-1.27 2.69v0c-0.487 0.16-1.283 0.24-2.39 0.24v0 1.22h10.99c0-0.713-0.247-1.103-0.74-1.17v0c-0.127-0.033-0.287-0.05-0.48-0.05v0h-2.45v-12.11c0-3.253-1.123-5.58-3.37-6.98v0c-1.04-0.62-2.16-0.93-3.36-0.93v0c-2.413 0-4.4 0.96-5.96 2.88v0c-0.587 0.747-1.06 1.577-1.42 2.49v0l-0.19-4.88h-7.08v1.22h3.66v15.38c0 1.5-0.423 2.397-1.27 2.69v0c-0.487 0.16-1.283 0.24-2.39 0.24v0 1.22h10.74c0-0.713-0.243-1.103-0.73-1.17v0c-0.133-0.033-0.297-0.05-0.49-0.05zM183.69-1.22v0h-2.44v-19.53h-7.57v1.22h3.91v15.38c0 1.5-0.507 2.41-1.52 2.73v0c-0.487 0.133-1.283 0.2-2.39 0.2v0 1.22h11.23c0-0.713-0.243-1.103-0.73-1.17v0c-0.16-0.033-0.323-0.05-0.49-0.05zM181.84-27.88v0c0-1.14-0.507-1.953-1.52-2.44v0c-0.387-0.167-0.76-0.25-1.12-0.25v0c-1.14 0-1.953 0.523-2.44 1.57v0c-0.167 0.353-0.25 0.727-0.25 1.12v0c0 1.207 0.54 2.037 1.62 2.49v0c0.353 0.127 0.71 0.19 1.07 0.19v0c1.14 0 1.937-0.52 2.39-1.56v0c0.167-0.353 0.25-0.727 0.25-1.12zM188.33-10.16v0c0 3.94 1.45 6.887 4.35 8.84v0c1.787 1.207 3.82 1.81 6.1 1.81v0c3.387 0 5.943-1.19 7.67-3.57v0c0.387-0.553 0.693-1.107 0.92-1.66v0l-1.27-0.44c-1.2 2.573-3.183 3.99-5.95 4.25v0c-0.26 0.033-0.52 0.05-0.78 0.05v0c-2.313 0-4.12-1.157-5.42-3.47v0c-0.98-1.753-1.47-3.837-1.47-6.25v0c0-4.26 1.123-7.107 3.37-8.54v0c0.947-0.587 1.987-0.88 3.12-0.88v0c1.76 0 2.82 0.683 3.18 2.05v0c0.067 0.26 0.147 0.667 0.24 1.22v0c0.2 1.307 0.56 2.12 1.08 2.44v0c0.327 0.167 0.683 0.267 1.07 0.3v0c1.107 0.06 1.807-0.397 2.1-1.37v0c0.067-0.227 0.1-0.44 0.1-0.64v0c0-1.66-1.06-3.027-3.18-4.1v0c-1.493-0.747-3.12-1.12-4.88-1.12v0c-4.36 0-7.403 1.773-9.13 5.32v0c-0.813 1.693-1.22 3.613-1.22 5.76z" fill="#000000" fill-rule="nonzero" stroke="none" stroke-width="1" stroke-linecap="butt" stroke-linejoin="miter" stroke-miterlimit="10" stroke-dasharray="" stroke-dashoffset="0" font-family="none" font-weight="none" font-size="none" text-anchor="none" style="mix-blend-mode: normal" data-fill-palette-color="primary" opacity="1"></path><path transform="translate(82.4,44.02)" d="M24.71-22.66v0c0-2.473-1.173-4.31-3.52-5.51v0c-1.527-0.753-3.367-1.13-5.52-1.13v0h-13.72v1.27h3.91v26.76h-3.91v1.27h13.87c4.2 0 7.277-1.333 9.23-4v0c1.007-1.4 1.51-2.93 1.51-4.59v0c0-2.607-1.153-4.627-3.46-6.06v0c-1.08-0.62-2.32-1.06-3.72-1.32v0c2.347-0.88 3.96-2.36 4.84-4.44v0c0.327-0.78 0.49-1.53 0.49-2.25zM10.06-28.03h4.44c3.353 0 5.257 1.483 5.71 4.45v0c0.067 0.42 0.1 0.857 0.1 1.31v0c0 2.12-0.83 3.717-2.49 4.79v0c-0.973 0.62-2.113 0.93-3.42 0.93v0h-4.34zM10.06-15.23h5.27c2.967 0 4.953 1.253 5.96 3.76v0c0.393 0.907 0.59 1.897 0.59 2.97v0c0 2.507-0.817 4.46-2.45 5.86v0c-1.073 0.913-2.357 1.37-3.85 1.37v0h-5.52zM40.33-1.22v0h-2.63v-30.52h-7.33v1.22h3.66v26.37c0 1.5-0.423 2.397-1.27 2.69v0c-0.487 0.16-1.283 0.24-2.39 0.24v0 1.22h11.18c0-0.713-0.243-1.103-0.73-1.17v0c-0.127-0.033-0.29-0.05-0.49-0.05zM61.96 0.49v0c2.507 0 3.89-1.513 4.15-4.54v0c0.033-0.2 0.05-0.38 0.05-0.54v0l-1.27-0.05c-0.227 2.38-0.86 3.583-1.9 3.61v0c-0.847-0.06-1.287-0.903-1.32-2.53v0-10.31c0-4.653-2.327-7.11-6.98-7.37v0c-0.293 0-0.587 0-0.88 0v0c-3.647 0-6.09 0.847-7.33 2.54v0c-0.387 0.553-0.58 1.107-0.58 1.66v0c0 1.007 0.47 1.593 1.41 1.76v0c0.167 0.033 0.33 0.05 0.49 0.05v0c0.753 0 1.307-0.473 1.66-1.42v0c0.46-1.207 0.77-1.923 0.93-2.15v0c0.62-0.813 1.58-1.22 2.88-1.22v0c3.06 0.193 4.64 1.87 4.74 5.03v0 3.08c-7.653 0-12.033 1.593-13.14 4.78v0c-0.193 0.62-0.29 1.287-0.29 2v0c0 2.473 1.09 4.167 3.27 5.08v0c0.88 0.36 1.807 0.54 2.78 0.54v0c2.38 0 4.383-0.813 6.01-2.44v0c0.587-0.62 1.027-1.273 1.32-1.96v0c0.387 2.9 1.72 4.367 4 4.4zM52.25-1.46v0c-1.987 0-3.21-0.993-3.67-2.98v0c-0.093-0.46-0.14-0.967-0.14-1.52v0c0-2.18 1.253-3.563 3.76-4.15v0c1.333-0.293 3.27-0.457 5.81-0.49v0 3.91c-0.487 2.247-1.677 3.827-3.57 4.74v0c-0.747 0.327-1.477 0.49-2.19 0.49zM75.68-0.83v0c2.247 0 3.76-0.683 4.54-2.05v0c0.293-0.487 0.44-1.023 0.44-1.61v0c0-1.367-0.99-2.54-2.97-3.52v0c-0.427-0.227-1.127-0.55-2.1-0.97v0c-2.673-1.107-4.45-2.15-5.33-3.13v0c-0.94-1.073-1.41-2.327-1.41-3.76v0c0-2.247 1.237-3.827 3.71-4.74v0c1.14-0.42 2.377-0.63 3.71-0.63v0c2.147 0 4.003 0.457 5.57 1.37v0c0-0.947 0.227-1.483 0.68-1.61v0c0.193-0.033 0.403-0.05 0.63-0.05v0 6.1h-1.27c-0.06-2.993-1.72-4.507-4.98-4.54v0c-2.44 0-3.953 0.717-4.54 2.15v0c-0.16 0.387-0.24 0.793-0.24 1.22v0c0 1.4 1.01 2.587 3.03 3.56v0c0.453 0.227 1.167 0.537 2.14 0.93v0c2.64 1.073 4.4 2.1 5.28 3.08v0c0.94 1.04 1.41 2.277 1.41 3.71v0c0 2.633-1.397 4.39-4.19 5.27v0c-1.08 0.36-2.253 0.54-3.52 0.54v0c-2.347-0.033-4.38-0.62-6.1-1.76v0c0 0.847-0.213 1.337-0.64 1.47v0c-0.193 0.027-0.42 0.04-0.68 0.04v0-7.42h1.36c0.067 4.2 1.89 6.317 5.47 6.35zM86.91-20.75v1.22h3.42v13.77c0.227 4.067 2.1 6.167 5.62 6.3v0c2.993 0 4.863-1.84 5.61-5.52v0c0-0.033 0-0.067 0-0.1v0l-1.32-0.24c-0.813 2.7-2 4.163-3.56 4.39v0c-1.76-0.067-2.657-1.32-2.69-3.76v0-14.84h7.57v-1.22h-7.57v-5.67l-3.66 1.03v4.64zM113.28-1.22v0h-2.44v-19.53h-7.57v1.22h3.91v15.38c0 1.5-0.507 2.41-1.52 2.73v0c-0.487 0.133-1.283 0.2-2.39 0.2v0 1.22h11.23c0-0.713-0.243-1.103-0.73-1.17v0c-0.16-0.033-0.323-0.05-0.49-0.05zM111.43-27.88v0c0-1.14-0.507-1.953-1.52-2.44v0c-0.387-0.167-0.76-0.25-1.12-0.25v0c-1.14 0-1.953 0.523-2.44 1.57v0c-0.167 0.353-0.25 0.727-0.25 1.12v0c0 1.207 0.537 2.037 1.61 2.49v0c0.36 0.127 0.72 0.19 1.08 0.19v0c1.14 0 1.937-0.52 2.39-1.56v0c0.167-0.353 0.25-0.727 0.25-1.12zM126.95-1.22v0h-2.19v-10.55c0.093-3.027 1.167-5.207 3.22-6.54v0c0.88-0.553 1.773-0.83 2.68-0.83v0c1.987 0 3.34 0.927 4.06 2.78v0c0.293 0.753 0.44 1.6 0.44 2.54v0 9.67c0 1.5-0.423 2.397-1.27 2.69v0c-0.493 0.16-1.293 0.24-2.4 0.24v0 1.22h10.99c0-0.713-0.243-1.103-0.73-1.17v0c-0.133-0.033-0.297-0.05-0.49-0.05v0h-2.44v-12.11c0-3.253-1.123-5.58-3.37-6.98v0c-1.04-0.62-2.163-0.93-3.37-0.93v0c-2.407 0-4.393 0.96-5.96 2.88v0c-0.587 0.747-1.057 1.577-1.41 2.49v0l-0.2-4.88h-7.08v1.22h3.66v15.38c0 1.5-0.423 2.397-1.27 2.69v0c-0.487 0.16-1.283 0.24-2.39 0.24v0 1.22h10.74c0-0.713-0.243-1.103-0.73-1.17v0c-0.127-0.033-0.29-0.05-0.49-0.05zM150.05-13.53v0c0.067-4.293 1.693-6.457 4.88-6.49v0c3.193 0.067 4.807 2.23 4.84 6.49v0c-0.067 4.433-1.68 6.663-4.84 6.69v0c-3.22-0.06-4.847-2.29-4.88-6.69zM154.98-21.24v0c-2.927 0-5.253 0.943-6.98 2.83v0c-1.24 1.4-1.86 3.043-1.86 4.93v0c0 2.473 1.207 4.527 3.62 6.16v0c0.227 0.16 0.453 0.307 0.68 0.44v0c-2.087 0-3.39 0.893-3.91 2.68v0c-0.093 0.427-0.14 0.85-0.14 1.27v0c0.033 1.727 0.733 3.013 2.1 3.86v0c-1.073 1.14-1.61 2.293-1.61 3.46v0c0 1.793 1.057 3.13 3.17 4.01v0c1.333 0.587 2.977 0.88 4.93 0.88v0c4.947 0 8.217-1.207 9.81-3.62v0c0.527-0.813 0.79-1.673 0.79-2.58v0c0-2.8-1.613-4.413-4.84-4.84v0c-0.42-0.067-0.86-0.1-1.32-0.1v0l-8.88-0.19c-1.5-0.1-2.267-0.75-2.3-1.95v0c0-0.847 0.537-1.387 1.61-1.62v0c0.233-0.027 0.48-0.04 0.74-0.04v0l4.29 0.04c2.9 0 5.213-0.973 6.94-2.92v0c1.233-1.4 1.85-3.063 1.85-4.99v0c-0.033-2.44-0.977-4.39-2.83-5.85v0c0.293-1.047 0.847-1.667 1.66-1.86v0c0.133-0.033 0.263-0.05 0.39-0.05v0c0.453 0 0.943 0.243 1.47 0.73v0c0.353 0.327 0.677 0.49 0.97 0.49v0c0.813-0.193 1.287-0.713 1.42-1.56v0c0-1.007-0.473-1.69-1.42-2.05v0c-0.36-0.133-0.717-0.2-1.07-0.2v0c-1.533 0-2.77 0.683-3.71 2.05v0c-0.36 0.527-0.637 1.097-0.83 1.71v0c-1.467-0.747-3.047-1.12-4.74-1.12zM154.98 8.01v0c-3.22 0-5.253-0.847-6.1-2.54v0c-0.227-0.453-0.34-0.91-0.34-1.37v0c0.027-0.88 0.417-1.76 1.17-2.64v0c0.647 0.133 1.183 0.2 1.61 0.2v0l7.52 0.1c2.44 0.033 3.857 0.587 4.25 1.66v0c0.093 0.26 0.14 0.583 0.14 0.97v0c0 1.433-1.333 2.477-4 3.13v0c-1.3 0.327-2.717 0.49-4.25 0.49z" fill="#000000" fill-rule="nonzero" stroke="none" stroke-width="1" stroke-linecap="butt" stroke-linejoin="miter" stroke-miterlimit="10" stroke-dasharray="" stroke-dashoffset="0" font-family="none" font-weight="none" font-size="none" text-anchor="none" style="mix-blend-mode: normal" data-fill-palette-color="primary" opacity="1"></path></g></svg></g></svg></g></svg></g></svg></g><g><svg viewBox="0 0 244.43135999999996 234.65410559999998" height="234.65410559999998" width="244.43135999999996"><g><svg xmlns="http://www.w3.org/2000/svg" xmlns:xlink="http://www.w3.org/1999/xlink" version="1.1" x="0" y="0" viewBox="0 0 100 96" style="enable-background:new 0 0 100 96;" xml:space="preserve" height="234.65410559999998" width="244.43135999999996" class="icon-icon-0" data-fill-palette-color="accent" id="icon-0"><path d="M67.4 49.8L56.1 33.9C55.9 33.6 55.5 33.1 53.9 32.4 55 31.2 55.6 29.7 55.6 28 55.6 24.4 52.7 21.4 49 21.4 45.4 21.4 42.4 24.3 42.4 28 42.4 29.4 42.9 30.8 43.7 31.9L43.6 32 37.1 38.5C35.8 40 35 41.9 35 43.9L35.1 50.9C35.1 53.1 36.9 54.9 39.2 54.9 40.4 54.9 41.5 54.4 42.2 53.5L39.2 70.1C39 71.2 39.2 72.4 39.9 73.3 40.5 74.3 41.5 74.9 42.6 75.1 42.9 75.2 43.2 75.2 43.4 75.2 44.2 75.2 45.1 74.9 45.8 74.5 46.8 73.9 47.4 72.9 47.6 71.9L49.5 65.5 50.9 72.8C51.1 74 52 75 53.2 75.7 54 76.1 54.8 76.3 55.7 76.3 56 76.3 56.3 76.3 56.6 76.2 57.1 76.1 57.5 75.8 57.8 75.5 58.2 75.3 58.5 75 58.8 74.7 59.8 73.7 60.2 72.4 60 71.1L55.8 51.2V50.2L59.9 55.9C61.5 58.1 65 57.8 66.7 56.6 67.1 56.4 67.3 56 67.5 55.6 67.9 54.2 68.5 51.5 67.4 49.8M49.1 25.6C50.4 25.6 51.5 26.7 51.5 28S50.4 30.4 49.1 30.4 46.7 29.3 46.7 28 47.8 25.6 49.1 25.6M41 41.9C40 42.9 39.4 44.1 39.1 45.5V43.9C39.1 43 39.4 42.1 40.1 41.5L42.6 39V40.3zM63.7 53.4H63L53.2 39.6C52.5 38.7 51.2 38.4 50.3 39.1S49.1 41.1 49.8 42L51.5 44.4V51.9L55.7 71.7C55.6 71.8 55.4 72 55.2 72.1 55.1 72.1 55 72 55 72L51.8 55.8C51.6 54.7 50.5 54 49.4 54.2S47.5 55.5 47.8 56.6V56.8C47.7 57 47.6 57.1 47.5 57.3L43.6 70.7C43.6 70.8 43.4 71 43.4 71 43.3 71 43.3 70.9 43.3 70.8L46.8 51.8V35C46.8 34.8 46.9 34.7 47.1 34.6 49.6 35.2 52.2 36.1 53 36.5L64 52.1C63.9 52.3 63.8 52.9 63.7 53.4" fill="#d2d6dc" data-fill-palette-color="accent"></path><path d="M79.4 72.1C79.2 72.1 79 72.1 78.9 72 77.8 71.7 77.1 70.6 77.4 69.5L88.4 27.5C88.7 26.4 89.8 25.7 90.9 26S92.7 27.4 92.4 28.5L81.4 70.5C81.1 71.5 80.3 72.1 79.4 72.1" fill="#d2d6dc" data-fill-palette-color="accent"></path><path d="M69 96C68.5 96 67.9 95.8 67.5 95.4 66.9 94.8 66.7 93.9 67.1 93.1 67.1 93.1 68.6 89.4 67.9 85.2 66.8 79 74.8 74.1 75.7 73.5 76.3 73.1 77.1 73.1 77.8 73.5 78 73.6 82.4 76.2 82.7 83.1 83 90.4 77.8 92.5 77.5 92.6L69.9 95.8C69.6 96 69.3 96 69 96M76.6 77.9C74.6 79.4 71.6 82.1 72 84.4 72.4 86.6 72.3 88.7 72.1 90.4L75.9 88.8C76.2 88.7 78.6 87.5 78.5 83.3 78.4 80.5 77.4 78.8 76.6 77.9" fill="#d2d6dc" data-fill-palette-color="accent"></path><path d="M100 79.7C100 79.6 100 79.5 99.9 79.4 99.9 79.3 99.9 79.2 99.8 79S99.7 78.7 99.6 78.5C99.6 78.4 99.5 78.3 99.5 78.3H99.4C99.3 78.1 99.1 78 98.9 77.9 98.8 77.9 98.8 77.8 98.7 77.8 98.4 77.7 98.2 77.6 97.9 77.6H86.6C86.3 77.6 86 77.7 85.8 77.8 85.7 77.8 85.7 77.9 85.6 77.9 85.4 78 85.3 78.1 85.1 78.3H85C84.9 78.4 84.9 78.4 84.9 78.5 84.8 78.6 84.7 78.8 84.7 79 84.7 79.1 84.6 79.2 84.6 79.4 84.6 79.5 84.5 79.6 84.5 79.7V80.1L86.8 94.1C87 95.1 87.8 95.8 88.8 95.8H95.6C96.6 95.8 97.5 95.1 97.6 94.1L99.9 80.1V79.9C100 79.8 100 79.8 100 79.7M93.9 91.7H90.7L89.1 81.8H95.5z" fill="#d2d6dc" data-fill-palette-color="accent"></path><g fill="#d2d6dc" data-fill-palette-color="accent"><path d="M61.4 93.6H59.3C58.2 93.6 57.2 92.7 57.2 91.5S58.1 89.4 59.3 89.4H61.4C62.5 89.4 63.5 90.3 63.5 91.5S62.5 93.6 61.4 93.6" fill="#d2d6dc" data-fill-palette-color="accent"></path></g><g fill="#d2d6dc" data-fill-palette-color="accent"><path d="M51 93.6H46.8C45.7 93.6 44.7 92.7 44.7 91.5S45.6 89.4 46.8 89.4H51C52.1 89.4 53.1 90.3 53.1 91.5S52.1 93.6 51 93.6M38.4 93.6H38.2C36.8 93.6 35.3 93.5 33.9 93.3 32.8 93.1 32 92.1 32.2 90.9 32.4 89.8 33.4 89 34.6 89.2S37 89.5 38.2 89.5H38.4C39.5 89.5 40.5 90.4 40.5 91.6S39.6 93.6 38.4 93.6M26.4 90.6C26.1 90.6 25.7 90.5 25.4 90.4 24.1 89.7 22.8 88.9 21.6 87.9 20.7 87.2 20.5 85.9 21.2 85S23.2 83.9 24.1 84.6C25.1 85.4 26.2 86.1 27.3 86.7 28.3 87.2 28.7 88.5 28.1 89.5 27.8 90.2 27.1 90.6 26.4 90.6M17.2 82.3C16.5 82.3 15.9 82 15.5 81.4 14.7 80.1 13.9 78.8 13.3 77.4 12.8 76.4 13.3 75.1 14.4 74.7 15.5 74.2 16.7 74.7 17.1 75.8 17.6 77 18.2 78.1 18.9 79.2 19.5 80.2 19.3 81.4 18.3 82.1 18 82.2 17.6 82.3 17.2 82.3" fill="#d2d6dc" data-fill-palette-color="accent"></path></g><g fill="#d2d6dc" data-fill-palette-color="accent"><path d="M13.2 70.5C12.1 70.5 11.2 69.7 11.1 68.6 11 67.9 11 67.1 11 66.4 11 65.3 11.9 64.3 13.1 64.3S15.2 65.2 15.2 66.4C15.2 67 15.2 67.7 15.3 68.3 15.4 69.4 14.5 70.4 13.4 70.5z" fill="#d2d6dc" data-fill-palette-color="accent"></path></g><path d="M78.8 37.8C77.8 37.8 76.9 37.1 76.8 36.1 76.6 34.8 76.3 33.6 75.9 32.4 75.5 31.3 76.1 30.1 77.2 29.8 78.3 29.4 79.5 30 79.8 31.1 80.3 32.5 80.6 33.9 80.9 35.4 81.1 36.5 80.3 37.6 79.2 37.8 79 37.7 78.9 37.8 78.8 37.8M74.2 26.3C73.5 26.3 72.9 26 72.5 25.4 71.8 24.3 71 23.3 70.1 22.4 69.3 21.6 69.4 20.2 70.2 19.5 71 18.7 72.4 18.8 73.1 19.6 74.1 20.7 75 21.9 75.8 23.1 76.4 24 76.2 25.3 75.3 26 75 26.2 74.6 26.3 74.2 26.3M65.2 17.8C64.8 17.8 64.4 17.7 64.1 17.5 63 16.8 61.9 16.2 60.7 15.7 59.7 15.2 59.2 14 59.6 13 60.1 12 61.3 11.5 62.3 11.9 63.7 12.5 65 13.2 66.2 14 67.2 14.6 67.5 15.9 66.9 16.9 66.6 17.4 65.9 17.8 65.2 17.8M53.6 13.6H53.3C52.1 13.4 50.8 13.4 49.6 13.4 48.5 13.4 47.5 12.5 47.5 11.3S48.4 9.2 49.5 9.2H49.6C51 9.2 52.5 9.3 53.9 9.5 55 9.7 55.8 10.7 55.7 11.8 55.5 12.9 54.7 13.6 53.6 13.6M41.2 13.3H37.1C36 13.3 35 12.4 35 11.2S35.9 9.1 37.1 9.1H41.2C42.3 9.1 43.3 10 43.3 11.2S42.4 13.3 41.2 13.3" fill="#d2d6dc" data-fill-palette-color="accent"></path><path d="M26.7 23.4C26.7 22.3 25.9 21.5 24.9 21.4V11.1C25.9 11 26.7 10.1 26.7 9.1 26.7 8 25.9 7.2 24.9 7.1V2.1C24.9 1 24 0 22.8 0S20.7 0.9 20.7 2.1V7H6V2.1C6 0.9 5 0 3.9 0S1.8 0.9 1.8 2.1V7.1C0.8 7.2 0 8 0 9.1S0.8 11 1.8 11.1V21.4C0.8 21.5 0 22.4 0 23.4 0 24.5 0.8 25.3 1.8 25.4V35.7C0.8 35.8 0 36.7 0 37.7 0 38.8 0.8 39.6 1.8 39.7V50C0.8 50.1 0 51 0 52 0 53.1 0.8 53.9 1.8 54V62.8C1.8 63.9 2.7 64.9 3.9 64.9S6 64.1 6 62.9V54.2H20.8V62.9C20.8 64 21.7 65 22.9 65S25 64.1 25 62.9V54.1C26 54 26.8 53.1 26.8 52.1 26.8 51 26 50.2 25 50.1V39.8C26 39.7 26.8 38.8 26.8 37.8 26.8 36.7 26 35.9 25 35.8V25.4C25.9 25.3 26.7 24.5 26.7 23.4M6 11.1H20.8V18.6C20.8 15.2 18 12.4 14.6 12.4H11.8C9.3 12.4 7.1 13.9 6.1 16.1zM16.6 18.6V19.2C16.6 20.3 15.7 21.3 14.5 21.3H11.7C10.6 21.3 9.6 20.4 9.6 19.2V18.6C9.6 17.5 10.5 16.5 11.7 16.5H14.5C15.6 16.6 16.6 17.5 16.6 18.6M20.7 45.9C20.7 43.8 19 42 16.8 42 15.1 42 13.7 43.1 13.2 44.6 12.6 43.1 11.2 42 9.5 42 8 42 6.7 42.8 6 44.1V39.8H20.8V45.9zM20.7 35.7H6V25.5H20.7z" fill="#d2d6dc" data-fill-palette-color="accent"></path></svg></g></svg></g></svg></g><defs></defs></svg><rect width="395.52" height="140.91232767674754" fill="none" stroke="none" visibility="hidden"></rect></g></svg></g></svg>