<?xml version="1.0" encoding="utf-8"?>
<!-- Generator: Adobe Illustrator 26.0.1, SVG Export Plug-In . SVG Version: 6.00 Build 0)  -->
<svg version="1.1" id="Versiones" xmlns="http://www.w3.org/2000/svg" xmlns:xlink="http://www.w3.org/1999/xlink" x="0px" y="0px"
	 viewBox="0 0 700 146" style="enable-background:new 0 0 700 146;" xml:space="preserve">
<style type="text/css">
	.st0{fill:#363636;}
	.st1{fill:#888888;}
	.st2{fill:#003DA6;}
	.st3{fill:#00BED6;}
	.st4{fill:#424242;}
	.st5{fill:#B2B2B2;}
</style>
<g id="AC_FAVICON">
	<path d="M586.7,688.5l-31-94.1c0-0.1-0.1-0.2-0.1-0.3c-0.2-0.4-0.3-0.8-0.5-1.2c-0.1-0.3-0.2-0.6-0.4-0.9c-0.2-0.4-0.4-0.8-0.6-1.2
		c-0.2-0.3-0.3-0.5-0.5-0.8c-0.2-0.3-0.5-0.7-0.7-1c-0.2-0.3-0.4-0.5-0.7-0.8c-0.2-0.3-0.5-0.5-0.8-0.8c-0.3-0.3-0.5-0.5-0.8-0.8
		c-0.3-0.2-0.5-0.4-0.8-0.7c-0.3-0.3-0.7-0.5-1-0.7c-0.3-0.2-0.5-0.3-0.8-0.5c-0.4-0.2-0.8-0.4-1.1-0.6c-0.3-0.2-0.6-0.3-0.9-0.4
		c-0.4-0.2-0.8-0.3-1.2-0.5c-0.1,0-0.2-0.1-0.3-0.1l-94.1-31c-6.4-2.1-13.4-0.5-18.2,4.3l-113,113c-4.4,4.4-6.2,10.7-4.8,16.8
		c0.8,3.2,2.4,6.1,4.7,8.5l0,0c2,2,4.4,3.5,7,4.3l85.5,28.1l28.1,85.5c0.9,2.6,2.4,5.1,4.3,7c2.3,2.3,5.3,4,8.5,4.7
		c1.4,0.3,2.8,0.5,4.2,0.5c4.7,0,9.2-1.8,12.6-5.2l113-113C587.2,702,588.8,695,586.7,688.5L586.7,688.5z M449.1,664.4l-28.2,28.2
		l-56.1-18.5l84.8-84.8l56.1,18.5L449.1,664.4L449.1,664.4z M530.9,633.2l18.5,56.1L464.6,774l-18.5-56.1L530.9,633.2z"/>
	<g>
		<path d="M619.5,426.6c-11.7,0-21.2,9.5-21.2,21.2v31c0,11.7,9.5,21.2,21.2,21.2s21.2-9.5,21.2-21.2v-31
			C640.7,436.1,631.2,426.6,619.5,426.6L619.5,426.6z"/>
		<path d="M619.5,552.4c-11.7,0-21.2,9.5-21.2,21.2v31c0,11.7,9.5,21.2,21.2,21.2s21.2-9.5,21.2-21.2v-31
			C640.7,561.9,631.2,552.4,619.5,552.4z"/>
		<path d="M697.9,505h-31c-11.7,0-21.2,9.5-21.2,21.2s9.5,21.2,21.2,21.2h31c11.7,0,21.2-9.5,21.2-21.2S709.6,505,697.9,505z"/>
		<path d="M572.1,505h-31c-11.7,0-21.2,9.5-21.2,21.2s9.5,21.2,21.2,21.2h31c11.7,0,21.2-9.5,21.2-21.2S583.8,505,572.1,505z"/>
	</g>
</g>
<g id="EG_FAVICON">
	<path class="st0" d="M-515.1,688.5l-31-94.1c0-0.1-0.1-0.2-0.1-0.3c-0.2-0.4-0.3-0.8-0.5-1.2c-0.1-0.3-0.2-0.6-0.4-0.9
		c-0.2-0.4-0.4-0.8-0.6-1.2c-0.2-0.3-0.3-0.5-0.5-0.8c-0.2-0.3-0.5-0.7-0.7-1c-0.2-0.3-0.4-0.5-0.7-0.8c-0.2-0.3-0.5-0.5-0.8-0.8
		c-0.3-0.3-0.5-0.5-0.8-0.8c-0.3-0.2-0.5-0.4-0.8-0.7c-0.3-0.3-0.7-0.5-1-0.7c-0.3-0.2-0.5-0.3-0.8-0.5c-0.4-0.2-0.8-0.4-1.1-0.6
		c-0.3-0.2-0.6-0.3-0.9-0.4c-0.4-0.2-0.8-0.3-1.2-0.5c-0.1,0-0.2-0.1-0.3-0.1l-94.1-31c-6.4-2.1-13.4-0.5-18.2,4.3l-113,113
		c-4.4,4.4-6.2,10.7-4.8,16.8c0.8,3.2,2.4,6.1,4.7,8.5l0,0c2,2,4.4,3.5,7,4.3l85.5,28.1l28.1,85.5c0.9,2.6,2.4,5.1,4.3,7
		c2.3,2.3,5.3,4,8.5,4.7c1.4,0.3,2.8,0.5,4.2,0.5c4.7,0,9.2-1.8,12.6-5.2l113-113C-514.7,702-513,695-515.1,688.5L-515.1,688.5z
		 M-652.7,664.4l-28.2,28.2l-56.1-18.5l84.8-84.8l56.1,18.5L-652.7,664.4L-652.7,664.4z M-571,633.2l18.5,56.1l-84.8,84.8
		l-18.5-56.1L-571,633.2z"/>
	<g>
		<path class="st1" d="M-482.3,426.6c-11.7,0-21.2,9.5-21.2,21.2v31c0,11.7,9.5,21.2,21.2,21.2s21.2-9.5,21.2-21.2v-31
			C-461.1,436.1-470.6,426.6-482.3,426.6L-482.3,426.6z"/>
		<path class="st1" d="M-482.3,552.4c-11.7,0-21.2,9.5-21.2,21.2v31c0,11.7,9.5,21.2,21.2,21.2s21.2-9.5,21.2-21.2v-31
			C-461.1,561.9-470.6,552.4-482.3,552.4z"/>
		<path class="st1" d="M-403.9,505h-31c-11.7,0-21.2,9.5-21.2,21.2s9.5,21.2,21.2,21.2h31c11.7,0,21.2-9.5,21.2-21.2
			S-392.2,505-403.9,505z"/>
		<path class="st1" d="M-529.7,505h-31c-11.7,0-21.2,9.5-21.2,21.2s9.5,21.2,21.2,21.2h31c11.7,0,21.2-9.5,21.2-21.2
			S-518,505-529.7,505z"/>
	</g>
</g>
<g id="ORIGINAL_FAVICON">
	<path class="st2" d="M-1920.5,688.5l-31-94.1c0-0.1-0.1-0.2-0.1-0.3c-0.2-0.4-0.3-0.8-0.5-1.2c-0.1-0.3-0.2-0.6-0.4-0.9
		c-0.2-0.4-0.4-0.8-0.6-1.2c-0.2-0.3-0.3-0.5-0.5-0.8c-0.2-0.3-0.5-0.7-0.7-1c-0.2-0.3-0.4-0.5-0.7-0.8c-0.2-0.3-0.5-0.5-0.8-0.8
		c-0.3-0.3-0.5-0.5-0.8-0.8c-0.3-0.2-0.5-0.4-0.8-0.7c-0.3-0.3-0.7-0.5-1-0.7c-0.3-0.2-0.6-0.3-0.8-0.5c-0.4-0.2-0.8-0.4-1.1-0.6
		c-0.3-0.2-0.6-0.3-0.9-0.4c-0.4-0.2-0.8-0.3-1.2-0.5c-0.1,0-0.2-0.1-0.3-0.1l-94.1-31c-6.4-2.1-13.4-0.5-18.2,4.3l-113.1,113
		c-4.4,4.4-6.2,10.7-4.8,16.8c0.8,3.2,2.4,6.1,4.7,8.5l0,0c2,2,4.4,3.5,7.1,4.3l85.5,28.1l28.1,85.5c0.9,2.6,2.4,5.1,4.3,7
		c2.3,2.3,5.3,4,8.5,4.7c1.4,0.3,2.8,0.5,4.2,0.5c4.7,0,9.2-1.8,12.6-5.2l113.1-113C-1920,702-1918.4,695-1920.5,688.5
		L-1920.5,688.5z M-2058.1,664.4l-28.2,28.2l-56.1-18.5l84.8-84.8l56.1,18.5L-2058.1,664.4L-2058.1,664.4z M-1976.3,633.2l18.5,56.1
		l-84.8,84.8l-18.5-56.1L-1976.3,633.2z"/>
	<g>
		<path class="st3" d="M-1887.7,426.6c-11.7,0-21.2,9.5-21.2,21.2v31c0,11.7,9.5,21.2,21.2,21.2s21.2-9.5,21.2-21.2v-31
			C-1866.5,436.1-1876,426.6-1887.7,426.6L-1887.7,426.6z"/>
		<path class="st3" d="M-1887.7,552.4c-11.7,0-21.2,9.5-21.2,21.2v31c0,11.7,9.5,21.2,21.2,21.2s21.2-9.5,21.2-21.2v-31
			C-1866.5,561.9-1876,552.4-1887.7,552.4z"/>
		<path class="st3" d="M-1809.3,505h-31c-11.7,0-21.2,9.5-21.2,21.2s9.5,21.2,21.2,21.2h31c11.7,0,21.2-9.5,21.2-21.2
			S-1797.6,505-1809.3,505z"/>
		<path class="st3" d="M-1935.1,505h-31c-11.7,0-21.2,9.5-21.2,21.2s9.5,21.2,21.2,21.2h31c11.7,0,21.2-9.5,21.2-21.2
			S-1923.4,505-1935.1,505z"/>
	</g>
</g>
<g>
	<g>
		<g>
			<path class="st2" d="M169,113.2c-6.6,0-12.4-1.5-17.5-4.5c-5.1-3-9-7.1-11.8-12.3c-2.8-5.2-4.3-11.3-4.3-18.3s1.4-13.3,4.3-18.6
				c2.8-5.3,6.8-9.5,12-12.5s11.1-4.6,17.8-4.6c7.2,0,13.7,1.8,19.3,5.4s9.6,8.4,12,14.5l-16.2,4.7c-1.2-2.7-3.1-4.8-5.6-6.3
				c-2.5-1.6-5.4-2.3-8.6-2.3s-6,0.8-8.5,2.5c-2.4,1.7-4.3,3.9-5.7,6.9c-1.3,2.9-2,6.4-2,10.3c0,6,1.5,10.7,4.4,14.2
				c2.9,3.5,6.9,5.2,11.8,5.2c3.1,0,5.9-0.7,8.5-2.2c2.5-1.5,4.5-3.6,6-6.3l16.1,4.8c-2.5,5.9-6.6,10.6-12.3,14.2
				C182.8,111.4,176.3,113.2,169,113.2L169,113.2z"/>
			<path class="st2" d="M209.3,43.3h16.1l1.1,8.8c1.9-2.4,4.1-4.4,6.5-5.9s5.1-2.6,8-3.2c2.9-0.6,6-0.5,9.3,0.3v16.4
				c-2.4-0.7-5-0.9-7.7-0.6c-2.8,0.4-5.3,1.3-7.6,2.9s-4.3,3.8-5.8,6.8s-2.3,6.6-2.3,10.9v32.5h-17.6L209.3,43.3L209.3,43.3z"/>
			<path class="st2" d="M311.1,43.3h18.7L290,136.1h-17.8l12.9-30l-27.6-62.7h19.6L294.5,85L311.1,43.3L311.1,43.3z"/>
			<path class="st2" d="M361.9,113.2c-6.7,0-12.7-1.4-17.9-4.3s-9.3-7-12.3-12.3c-3-5.3-4.5-11.5-4.5-18.7s1.5-13.5,4.5-18.9
				c3-5.3,7.2-9.4,12.6-12.3c5.4-2.9,11.4-4.3,18-4.3s12.6,1.4,18,4.3s9.6,7,12.7,12.3s4.7,11.5,4.7,18.7c0,7.2-1.6,13.5-4.8,18.9
				s-7.5,9.4-12.9,12.3C374.7,111.7,368.6,113.2,361.9,113.2L361.9,113.2z M361.9,97.3c2.8,0,5.5-0.7,8.1-2.1
				c2.5-1.4,4.6-3.6,6.3-6.5c1.7-2.9,2.5-6.6,2.5-11.1s-0.8-7.9-2.3-10.8c-1.6-2.9-3.6-5.1-6.1-6.5s-5.3-2.1-8.2-2.1
				s-5.5,0.7-7.9,2.1s-4.4,3.6-5.8,6.5c-1.5,2.9-2.2,6.6-2.2,11.1s0.7,7.9,2.1,10.8s3.3,5.1,5.7,6.5S359,97.3,361.9,97.3L361.9,97.3
				z"/>
		</g>
		<path class="st2" d="M95.3,93.5l-9.6-29.1c0,0,0-0.1,0-0.1c-0.1-0.1-0.1-0.3-0.2-0.4c0-0.1-0.1-0.2-0.1-0.3
			c-0.1-0.1-0.1-0.2-0.2-0.4c-0.1-0.1-0.1-0.2-0.2-0.2c-0.1-0.1-0.2-0.2-0.2-0.3c-0.1-0.1-0.1-0.2-0.2-0.2c-0.1-0.1-0.2-0.2-0.2-0.2
			s-0.2-0.2-0.3-0.2c-0.1-0.1-0.2-0.1-0.2-0.2c-0.1-0.1-0.2-0.2-0.3-0.2c-0.1-0.1-0.2-0.1-0.3-0.2c-0.1-0.1-0.2-0.1-0.3-0.2
			c-0.1,0-0.2-0.1-0.3-0.1c-0.1-0.1-0.2-0.1-0.4-0.2c0,0-0.1,0-0.1,0l-29.1-9.6c-2-0.7-4.2-0.1-5.6,1.3l-35,35
			c-1.4,1.4-1.9,3.3-1.5,5.2c0.2,1,0.7,1.9,1.5,2.6l0,0c0.6,0.6,1.4,1.1,2.2,1.3l26.4,8.7l8.7,26.4c0.3,0.8,0.7,1.6,1.3,2.2
			c0.7,0.7,1.6,1.2,2.6,1.5c0.4,0.1,0.9,0.1,1.3,0.1c1.4,0,2.8-0.6,3.9-1.6l34.9-34.9C95.4,97.6,95.9,95.5,95.3,93.5L95.3,93.5z
			 M52.8,86.1L44,94.8l-17.3-5.7l26.2-26.2l17.3,5.7L52.8,86.1L52.8,86.1z M78,76.4l5.7,17.3l-26.2,26.2l-5.7-17.3
			C51.8,102.6,78,76.4,78,76.4z"/>
		<g>
			<path class="st3" d="M105.4,12.5c-3.6,0-6.6,2.9-6.6,6.6v9.6c0,3.6,2.9,6.6,6.6,6.6s6.6-2.9,6.6-6.6v-9.6
				C112,15.5,109,12.5,105.4,12.5z"/>
			<path class="st3" d="M105.4,51.4c-3.6,0-6.6,2.9-6.6,6.6v9.6c0,3.6,2.9,6.6,6.6,6.6s6.6-2.9,6.6-6.6V58
				C112,54.4,109,51.4,105.4,51.4z"/>
			<path class="st3" d="M129.7,36.8h-9.6c-3.6,0-6.6,2.9-6.6,6.6s2.9,6.6,6.6,6.6h9.6c3.6,0,6.6-2.9,6.6-6.6S133.3,36.8,129.7,36.8z
				"/>
			<path class="st3" d="M90.8,36.8h-9.6c-3.6,0-6.6,2.9-6.6,6.6s2.9,6.6,6.6,6.6h9.6c3.6,0,6.6-2.9,6.6-6.6S94.4,36.8,90.8,36.8z"/>
		</g>
	</g>
	<g>
		<path class="st3" d="M420.8,53.4c2.1-3.1,5.1-5.8,9.1-8s8.6-3.3,14-3.3c6,0,11.3,1.4,15.8,4.4c4.6,2.9,8.2,7,10.8,12.4
			s3.9,11.6,3.9,18.8c0,7.2-1.3,13.3-4,18.7s-6.3,9.5-10.9,12.4c-4.6,2.9-9.8,4.4-15.7,4.4c-4.9,0-9.2-0.9-12.8-2.8
			s-6.5-4.1-8.5-6.8l-1.2,8.6h-16V12.6H423v41.2L420.8,53.4L420.8,53.4z M455.4,77.6c0-5.7-1.5-10.4-4.5-14c-3-3.6-6.9-5.4-11.7-5.4
			c-2.9,0-5.7,0.8-8.1,2.3s-4.4,3.7-5.9,6.6s-2.2,6.4-2.2,10.5s0.7,7.7,2.2,10.5s3.4,5.1,5.9,6.6c2.4,1.5,5.1,2.3,8.1,2.3
			c4.8,0,8.7-1.8,11.7-5.4C453.9,88,455.4,83.4,455.4,77.6z"/>
		<path class="st3" d="M483.5,12.6h17.7v99.6h-17.7V12.6z"/>
		<path class="st3" d="M555.2,112.2l-1.4-8.4c-2.3,2.9-4.9,5.2-7.8,6.9s-6.8,2.4-11.7,2.4c-4.6,0-8.6-0.8-12.1-2.4s-6.2-3.9-8.1-6.8
			c-1.9-2.9-2.9-6.3-2.9-10.3c0-5.8,2.1-10.6,6.3-14.4c4.2-3.8,10.5-6.2,19-7.3l17.3-1.8v-5c0-2-0.9-3.8-2.6-5.5s-4.5-2.4-8.3-2.4
			c-3.3,0-6.2,0.8-8.6,2.4c-2.4,1.6-4.1,4-4.9,7.3L514,61.3c2-6.2,5.6-10.9,10.8-14.2c5.2-3.3,11.5-5,18.9-5c9.1,0,16,2.3,20.7,6.9
			c4.7,4.6,7.1,10.6,7.1,18v45.2L555.2,112.2L555.2,112.2z M553.8,82.3L538.9,84c-3.1,0.5-5.5,1.4-7,2.8s-2.3,3.1-2.3,5.1
			s0.8,3.7,2.4,5.1s3.8,2,6.6,2c3.2,0,6-0.6,8.2-1.7c2.3-1.1,4-2.9,5.2-5.3c1.2-2.4,1.8-5.2,1.8-8.6L553.8,82.3L553.8,82.3z"/>
		<path class="st3" d="M598.2,89.7c0.5,2.3,1.4,4.1,2.8,5.3c1.4,1.2,2.9,2.1,4.6,2.6c1.7,0.5,3.4,0.8,5.2,0.8c3.2,0,5.7-0.6,7.5-1.9
			c1.8-1.2,2.7-2.8,2.7-4.6c0-1.8-0.6-3.1-1.9-4s-2.9-1.7-4.9-2.2s-4.1-1.1-6.2-1.8c-2.5-0.6-5.2-1.2-8-2c-2.9-0.8-5.5-1.9-8-3.4
			c-2.5-1.5-4.5-3.4-6.2-5.7s-2.4-5.3-2.4-8.9c0-4.3,1.2-8.1,3.5-11.3c2.3-3.2,5.6-5.7,9.8-7.5s9.1-2.7,14.6-2.7
			c6.6,0,12.1,1.4,16.6,4.2c4.5,2.8,7.8,6.7,9.8,11.9l-15.5,4.4c-0.6-1.3-1.4-2.3-2.5-3.2s-2.4-1.4-4-1.8c-1.6-0.4-3.1-0.6-4.6-0.6
			c-2.7,0-4.9,0.5-6.6,1.6s-2.6,2.6-2.6,4.5c0,1,0.3,1.9,1,2.6c0.6,0.7,1.5,1.3,2.7,1.8c1.2,0.5,2.5,0.9,4,1.2s3.2,0.8,4.9,1.3
			c2.9,0.7,5.9,1.6,8.8,2.5s5.6,2.1,8,3.6c2.4,1.5,4.4,3.5,5.9,5.9c1.5,2.5,2.3,5.6,2.5,9.4c0,4.1-1.2,7.7-3.5,11.1
			c-2.3,3.3-5.6,5.9-10,7.8c-4.3,1.9-9.6,2.8-15.8,2.8c-7.2,0-13.3-1.5-18.3-4.6c-5-3-8.3-7.8-9.9-14.4L598.2,89.7L598.2,89.7z"/>
		<path class="st3" d="M656.2,43.1V23.7h18.1v19.4h15.2v15.6h-15.2v28.1c0,3.7,0.7,6.2,2.2,7.7s3.4,2.2,5.8,2.3s4.8-0.1,7.3-0.4
			v15.2c-4.3,0.9-8.5,1.2-12.6,0.9c-4.1-0.3-7.6-1.4-10.7-3.2c-3.1-1.8-5.6-4.6-7.4-8.2c-1.8-3.6-2.8-8.4-2.8-14.2V58.7h-9.7V43
			L656.2,43.1L656.2,43.1z"/>
	</g>
</g>
<g>
	<g>
		<g>
			<path class="st4" d="M-776.7,113.2c-6.6,0-12.4-1.5-17.5-4.5c-5-3-9-7.1-11.8-12.3c-2.8-5.2-4.3-11.3-4.3-18.3s1.4-13.3,4.3-18.6
				c2.8-5.3,6.8-9.5,12-12.5c5.1-3,11.1-4.6,17.8-4.6c7.2,0,13.7,1.8,19.3,5.4c5.6,3.6,9.6,8.4,12,14.5l-16.2,4.7
				c-1.2-2.7-3-4.8-5.6-6.3c-2.5-1.6-5.4-2.3-8.6-2.3s-6,0.8-8.5,2.5s-4.3,3.9-5.7,6.9s-2,6.4-2,10.3c0,6,1.5,10.7,4.4,14.2
				c2.9,3.5,6.9,5.2,11.8,5.2c3.1,0,5.9-0.7,8.5-2.2c2.5-1.5,4.5-3.6,6-6.3l16.1,4.8c-2.5,5.9-6.6,10.6-12.3,14.2
				C-762.8,111.4-769.3,113.2-776.7,113.2L-776.7,113.2z"/>
			<path class="st4" d="M-736.3,43.3h16.1l1.1,8.8c1.9-2.4,4.1-4.4,6.5-5.9s5.1-2.6,8-3.2c2.9-0.6,6-0.5,9.3,0.3v16.4
				c-2.4-0.7-5-0.9-7.7-0.6c-2.8,0.4-5.3,1.3-7.6,2.9s-4.3,3.8-5.8,6.8s-2.3,6.6-2.3,10.9v32.5h-17.6L-736.3,43.3L-736.3,43.3z"/>
			<path class="st4" d="M-634.5,43.3h18.7l-39.9,92.8h-17.8l13-30L-688,43.4h19.6l17.4,41.7L-634.5,43.3L-634.5,43.3z"/>
			<path class="st4" d="M-583.7,113.2c-6.7,0-12.7-1.4-17.9-4.3c-5.2-2.9-9.3-7-12.3-12.3c-3-5.3-4.5-11.5-4.5-18.7
				s1.5-13.5,4.5-18.9c3-5.3,7.2-9.4,12.6-12.3c5.4-2.9,11.4-4.3,18-4.3s12.6,1.4,18,4.3s9.6,7,12.7,12.3s4.7,11.5,4.7,18.7
				c0,7.2-1.6,13.5-4.8,18.9s-7.5,9.4-12.9,12.3C-571,111.7-577,113.2-583.7,113.2L-583.7,113.2z M-583.7,97.3
				c2.8,0,5.5-0.7,8.1-2.1c2.5-1.4,4.6-3.6,6.3-6.5c1.7-2.9,2.5-6.6,2.5-11.1s-0.8-7.9-2.3-10.8s-3.6-5.1-6.1-6.5s-5.3-2.1-8.2-2.1
				s-5.5,0.7-7.9,2.1s-4.4,3.6-5.8,6.5c-1.5,2.9-2.2,6.6-2.2,11.1s0.7,7.9,2.1,10.8s3.3,5.1,5.7,6.5
				C-589.3,96.6-586.6,97.3-583.7,97.3L-583.7,97.3z"/>
		</g>
		<path class="st4" d="M-850.3,93.5l-9.6-29.1c0,0,0-0.1,0-0.1c0-0.1-0.1-0.3-0.2-0.4c0-0.1-0.1-0.2-0.1-0.3
			c-0.1-0.1-0.1-0.2-0.2-0.4c0-0.1-0.1-0.2-0.2-0.2c-0.1-0.1-0.2-0.2-0.2-0.3c-0.1-0.1-0.1-0.2-0.2-0.2c-0.1-0.1-0.2-0.2-0.2-0.2
			s-0.2-0.2-0.3-0.2c-0.1-0.1-0.2-0.1-0.2-0.2c-0.1-0.1-0.2-0.2-0.3-0.2c-0.1-0.1-0.2-0.1-0.3-0.2c-0.1-0.1-0.2-0.1-0.3-0.2
			c-0.1,0-0.2-0.1-0.3-0.1c-0.1-0.1-0.2-0.1-0.4-0.2c0,0-0.1,0-0.1,0l-29.1-9.6c-2-0.7-4.2-0.1-5.6,1.3l-35,35
			c-1.4,1.4-1.9,3.3-1.5,5.2c0.2,1,0.7,1.9,1.5,2.6l0,0c0.6,0.6,1.4,1.1,2.2,1.3l26.4,8.7l8.7,26.4c0.3,0.8,0.7,1.6,1.3,2.2
			c0.7,0.7,1.6,1.2,2.6,1.5c0.4,0.1,0.9,0.1,1.3,0.1c1.4,0,2.8-0.6,3.9-1.6l35-34.9C-850.2,97.6-849.7,95.5-850.3,93.5L-850.3,93.5z
			 M-892.9,86.1l-8.7,8.7l-17.3-5.7l26.2-26.2l17.3,5.7L-892.9,86.1L-892.9,86.1z M-867.6,76.4l5.7,17.3l-26.2,26.2l-5.7-17.3
			C-893.8,102.6-867.6,76.4-867.6,76.4z"/>
		<g>
			<path class="st5" d="M-840.2,12.5c-3.6,0-6.6,2.9-6.6,6.6v9.6c0,3.6,2.9,6.6,6.6,6.6s6.6-2.9,6.6-6.6v-9.6
				C-833.6,15.5-836.6,12.5-840.2,12.5z"/>
			<path class="st5" d="M-840.2,51.4c-3.6,0-6.6,2.9-6.6,6.6v9.6c0,3.6,2.9,6.6,6.6,6.6s6.6-2.9,6.6-6.6V58
				C-833.6,54.4-836.6,51.4-840.2,51.4z"/>
			<path class="st5" d="M-816,36.8h-9.6c-3.6,0-6.6,2.9-6.6,6.6s2.9,6.6,6.6,6.6h9.6c3.6,0,6.6-2.9,6.6-6.6S-812.3,36.8-816,36.8z"
				/>
			<path class="st5" d="M-854.8,36.8h-9.6c-3.6,0-6.6,2.9-6.6,6.6s2.9,6.6,6.6,6.6h9.6c3.6,0,6.6-2.9,6.6-6.6
				S-851.2,36.8-854.8,36.8z"/>
		</g>
	</g>
	<g>
		<path class="st5" d="M-524.8,53.4c2.1-3.1,5.1-5.8,9.1-8c3.9-2.2,8.6-3.3,14-3.3c6,0,11.3,1.4,15.8,4.4c4.6,2.9,8.2,7,10.8,12.4
			s3.9,11.6,3.9,18.8c0,7.2-1.3,13.3-4,18.7s-6.3,9.5-10.9,12.4c-4.6,2.9-9.8,4.4-15.7,4.4c-4.9,0-9.1-0.9-12.8-2.8
			s-6.5-4.1-8.5-6.8l-1.2,8.6h-16V12.6h17.7v41.2L-524.8,53.4L-524.8,53.4z M-490.2,77.6c0-5.7-1.5-10.4-4.5-14
			c-3-3.6-6.9-5.4-11.7-5.4c-3,0-5.6,0.8-8.1,2.3c-2.4,1.5-4.4,3.7-5.9,6.6c-1.5,2.9-2.2,6.4-2.2,10.5s0.7,7.7,2.2,10.5
			c1.5,2.9,3.4,5.1,5.9,6.6c2.4,1.5,5.1,2.3,8.1,2.3c4.8,0,8.7-1.8,11.7-5.4C-491.8,88-490.2,83.4-490.2,77.6z"/>
		<path class="st5" d="M-462.1,12.6h17.7v99.6h-17.7V12.6z"/>
		<path class="st5" d="M-390.4,112.2l-1.4-8.4c-2.3,2.9-4.9,5.2-7.8,6.9s-6.8,2.4-11.7,2.4c-4.6,0-8.6-0.8-12.1-2.4
			s-6.1-3.9-8.1-6.8c-1.9-2.9-2.9-6.3-2.9-10.3c0-5.8,2.1-10.6,6.3-14.4s10.5-6.2,19-7.3l17.3-1.8v-5c0-2-0.9-3.8-2.6-5.5
			s-4.5-2.4-8.3-2.4c-3.3,0-6.2,0.8-8.6,2.4s-4.1,4-4.9,7.3l-15.4-5.5c2-6.2,5.6-10.9,10.8-14.2c5.2-3.3,11.5-5,19-5
			c9.1,0,16,2.3,20.7,6.9c4.7,4.6,7,10.6,7,18v45.2L-390.4,112.2L-390.4,112.2z M-391.8,82.3l-14.9,1.7c-3.1,0.5-5.5,1.4-7,2.8
			c-1.5,1.4-2.3,3.1-2.3,5.1s0.8,3.7,2.4,5.1c1.6,1.3,3.8,2,6.6,2c3.2,0,6-0.6,8.2-1.7c2.3-1.1,4-2.9,5.2-5.3
			c1.2-2.4,1.8-5.2,1.8-8.6L-391.8,82.3L-391.8,82.3z"/>
		<path class="st5" d="M-347.4,89.7c0.5,2.3,1.4,4.1,2.8,5.3c1.4,1.2,2.9,2.1,4.6,2.6c1.7,0.5,3.4,0.8,5.2,0.8
			c3.2,0,5.7-0.6,7.5-1.9c1.8-1.2,2.7-2.8,2.7-4.6c0-1.8-0.6-3.1-1.9-4s-2.9-1.7-4.9-2.2s-4.1-1.1-6.2-1.8c-2.5-0.6-5.2-1.2-8-2
			c-2.9-0.8-5.5-1.9-8-3.4c-2.5-1.5-4.5-3.4-6.1-5.7s-2.4-5.3-2.4-8.9c0-4.3,1.2-8.1,3.5-11.3c2.4-3.2,5.6-5.7,9.8-7.5
			s9.1-2.7,14.6-2.7c6.5,0,12.1,1.4,16.6,4.2c4.5,2.8,7.8,6.7,9.8,11.9l-15.5,4.4c-0.5-1.3-1.4-2.3-2.5-3.2s-2.4-1.4-4-1.8
			s-3.1-0.6-4.6-0.6c-2.7,0-4.9,0.5-6.6,1.6s-2.6,2.6-2.6,4.5c0,1,0.3,1.9,1,2.6c0.6,0.7,1.5,1.3,2.7,1.8c1.1,0.5,2.5,0.9,4,1.2
			c1.5,0.3,3.2,0.8,4.9,1.3c3,0.7,5.9,1.6,8.8,2.5s5.6,2.1,8,3.6c2.4,1.5,4.4,3.5,5.9,5.9c1.5,2.5,2.3,5.6,2.5,9.4
			c0,4.1-1.1,7.7-3.5,11.1c-2.3,3.3-5.6,5.9-10,7.8c-4.3,1.9-9.6,2.8-15.8,2.8c-7.2,0-13.3-1.5-18.3-4.6c-5-3-8.3-7.8-9.9-14.4
			L-347.4,89.7L-347.4,89.7z"/>
		<path class="st5" d="M-289.4,43.1V23.7h18.1v19.4h15.2v15.6h-15.2v28.1c0,3.7,0.7,6.2,2.2,7.7s3.4,2.2,5.8,2.3s4.8-0.1,7.3-0.4
			v15.2c-4.3,0.9-8.5,1.2-12.6,0.9s-7.6-1.4-10.7-3.2c-3.1-1.8-5.6-4.6-7.4-8.2c-1.9-3.6-2.8-8.4-2.8-14.2V58.7h-9.7V43L-289.4,43.1
			L-289.4,43.1z"/>
	</g>
</g>
<g>
	<g>
		<g>
			<path d="M1346.7,113.2c-6.6,0-12.4-1.5-17.5-4.5c-5.1-3-9-7.1-11.8-12.3c-2.9-5.2-4.3-11.3-4.3-18.3s1.4-13.3,4.3-18.6
				c2.8-5.3,6.8-9.5,12-12.5s11.1-4.6,17.8-4.6c7.2,0,13.7,1.8,19.3,5.4s9.6,8.4,12,14.5l-16.2,4.7c-1.2-2.7-3.1-4.8-5.6-6.3
				c-2.5-1.6-5.4-2.3-8.6-2.3s-6,0.8-8.5,2.5s-4.3,3.9-5.7,6.9c-1.3,2.9-2,6.4-2,10.3c0,6,1.5,10.7,4.4,14.2
				c2.9,3.5,6.9,5.2,11.8,5.2c3.1,0,5.9-0.7,8.5-2.2c2.5-1.5,4.5-3.6,6-6.3l16.1,4.8c-2.5,5.9-6.6,10.6-12.3,14.2
				C1360.5,111.4,1354,113.2,1346.7,113.2L1346.7,113.2z"/>
			<path d="M1387.1,43.3h16.1l1.1,8.8c1.9-2.4,4.1-4.4,6.5-5.9c2.4-1.6,5.1-2.6,8-3.2c2.9-0.6,6-0.5,9.3,0.3v16.4
				c-2.4-0.7-5-0.9-7.7-0.6c-2.8,0.4-5.3,1.3-7.6,2.9c-2.3,1.6-4.3,3.8-5.8,6.8s-2.3,6.6-2.3,10.9v32.5h-17.6L1387.1,43.3
				L1387.1,43.3z"/>
			<path d="M1488.8,43.3h18.7l-39.9,92.8h-17.8l13-30l-27.6-62.7h19.6l17.4,41.7L1488.8,43.3L1488.8,43.3z"/>
			<path d="M1539.6,113.2c-6.7,0-12.7-1.4-17.9-4.3s-9.3-7-12.3-12.3c-3-5.3-4.5-11.5-4.5-18.7s1.5-13.5,4.5-18.9
				c3-5.3,7.2-9.4,12.6-12.3c5.4-2.9,11.4-4.3,18-4.3s12.6,1.4,18,4.3s9.6,7,12.7,12.3s4.7,11.5,4.7,18.7c0,7.2-1.6,13.5-4.8,18.9
				c-3.2,5.3-7.5,9.4-12.9,12.3C1552.4,111.7,1546.3,113.2,1539.6,113.2L1539.6,113.2z M1539.6,97.3c2.8,0,5.5-0.7,8.1-2.1
				c2.5-1.4,4.6-3.6,6.3-6.5c1.7-2.9,2.5-6.6,2.5-11.1s-0.8-7.9-2.3-10.8s-3.6-5.1-6.1-6.5s-5.3-2.1-8.2-2.1c-2.9,0-5.5,0.7-7.9,2.1
				s-4.4,3.6-5.8,6.5c-1.5,2.9-2.2,6.6-2.2,11.1s0.7,7.9,2.1,10.8c1.4,2.9,3.3,5.1,5.7,6.5C1534,96.6,1536.7,97.3,1539.6,97.3
				L1539.6,97.3z"/>
		</g>
		<path d="M1273,93.5l-9.6-29.1c0,0,0-0.1,0-0.1c-0.1-0.1-0.1-0.3-0.2-0.4c0-0.1-0.1-0.2-0.1-0.3c-0.1-0.1-0.1-0.2-0.2-0.4
			c0-0.1-0.1-0.2-0.2-0.2c-0.1-0.1-0.2-0.2-0.2-0.3c-0.1-0.1-0.1-0.2-0.2-0.2c-0.1-0.1-0.2-0.2-0.2-0.2s-0.2-0.2-0.3-0.2
			c-0.1-0.1-0.2-0.1-0.2-0.2c-0.1-0.1-0.2-0.2-0.3-0.2c-0.1-0.1-0.2-0.1-0.3-0.2c-0.1-0.1-0.2-0.1-0.4-0.2c-0.1,0-0.2-0.1-0.3-0.1
			c-0.1-0.1-0.2-0.1-0.4-0.2c0,0-0.1,0-0.1,0l-29.1-9.6c-2-0.7-4.2-0.1-5.6,1.3l-34.9,35c-1.4,1.4-1.9,3.3-1.5,5.2
			c0.2,1,0.7,1.9,1.5,2.6l0,0c0.6,0.6,1.4,1.1,2.2,1.3l26.4,8.7l8.7,26.4c0.3,0.8,0.7,1.6,1.3,2.2c0.7,0.7,1.6,1.2,2.6,1.5
			c0.4,0.1,0.9,0.1,1.3,0.1c1.4,0,2.8-0.6,3.9-1.6l34.9-34.9C1273.1,97.6,1273.6,95.5,1273,93.5L1273,93.5z M1230.5,86.1l-8.7,8.7
			l-17.3-5.7l26.2-26.2l17.3,5.7L1230.5,86.1L1230.5,86.1z M1255.7,76.4l5.7,17.3l-26.2,26.2l-5.7-17.3
			C1229.5,102.6,1255.7,76.4,1255.7,76.4z"/>
		<g>
			<path d="M1283.1,12.5c-3.6,0-6.6,2.9-6.6,6.6v9.6c0,3.6,2.9,6.6,6.6,6.6s6.6-2.9,6.6-6.6v-9.6
				C1289.7,15.5,1286.8,12.5,1283.1,12.5z"/>
			<path d="M1283.1,51.4c-3.6,0-6.6,2.9-6.6,6.6v9.6c0,3.6,2.9,6.6,6.6,6.6s6.6-2.9,6.6-6.6V58C1289.7,54.4,1286.8,51.4,1283.1,51.4
				z"/>
			<path d="M1307.4,36.8h-9.6c-3.6,0-6.6,2.9-6.6,6.6s2.9,6.6,6.6,6.6h9.6c3.6,0,6.6-2.9,6.6-6.6S1311,36.8,1307.4,36.8z"/>
			<path d="M1268.5,36.8h-9.6c-3.6,0-6.6,2.9-6.6,6.6s2.9,6.6,6.6,6.6h9.6c3.6,0,6.6-2.9,6.6-6.6S1272.1,36.8,1268.5,36.8z"/>
		</g>
	</g>
	<g>
		<path d="M1598.5,53.4c2.1-3.1,5.1-5.8,9.1-8c3.9-2.2,8.6-3.3,14-3.3c6,0,11.3,1.4,15.8,4.4c4.6,2.9,8.2,7,10.8,12.4
			s3.9,11.6,3.9,18.8c0,7.2-1.3,13.3-4,18.7c-2.7,5.4-6.3,9.5-10.9,12.4c-4.6,2.9-9.8,4.4-15.7,4.4c-4.9,0-9.2-0.9-12.8-2.8
			c-3.6-1.8-6.5-4.1-8.5-6.8l-1.2,8.6h-16V12.6h17.7v41.2L1598.5,53.4L1598.5,53.4z M1633.1,77.6c0-5.7-1.5-10.4-4.5-14
			c-3-3.6-6.9-5.4-11.7-5.4c-3,0-5.7,0.8-8.1,2.3c-2.4,1.5-4.4,3.7-5.9,6.6s-2.2,6.4-2.2,10.5s0.7,7.7,2.2,10.5s3.4,5.1,5.9,6.6
			c2.4,1.5,5.1,2.3,8.1,2.3c4.8,0,8.7-1.8,11.7-5.4C1631.6,88,1633.1,83.4,1633.1,77.6z"/>
		<path d="M1661.2,12.6h17.7v99.6h-17.7V12.6z"/>
		<path d="M1732.9,112.2l-1.4-8.4c-2.3,2.9-4.9,5.2-7.8,6.9c-2.9,1.6-6.8,2.4-11.7,2.4c-4.6,0-8.6-0.8-12.1-2.4
			c-3.5-1.6-6.2-3.9-8.1-6.8c-1.9-2.9-2.9-6.3-2.9-10.3c0-5.8,2.1-10.6,6.3-14.4s10.5-6.2,19-7.3l17.3-1.8v-5c0-2-0.9-3.8-2.6-5.5
			s-4.5-2.4-8.3-2.4c-3.3,0-6.2,0.8-8.6,2.4s-4.1,4-4.9,7.3l-15.4-5.5c2-6.2,5.6-10.9,10.8-14.2c5.2-3.3,11.5-5,18.9-5
			c9.1,0,16,2.3,20.7,6.9c4.7,4.6,7.1,10.6,7.1,18v45.2L1732.9,112.2L1732.9,112.2z M1731.5,82.3l-14.9,1.7c-3.1,0.5-5.5,1.4-7,2.8
			c-1.5,1.4-2.3,3.1-2.3,5.1s0.8,3.7,2.4,5.1s3.8,2,6.6,2c3.2,0,6-0.6,8.2-1.7c2.3-1.1,4-2.9,5.2-5.3c1.2-2.4,1.8-5.2,1.8-8.6
			L1731.5,82.3L1731.5,82.3z"/>
		<path d="M1775.9,89.7c0.5,2.3,1.4,4.1,2.8,5.3c1.4,1.2,2.9,2.1,4.6,2.6c1.7,0.5,3.4,0.8,5.2,0.8c3.2,0,5.7-0.6,7.5-1.9
			c1.8-1.2,2.7-2.8,2.7-4.6c0-1.8-0.6-3.1-1.9-4s-2.9-1.7-4.9-2.2s-4.1-1.1-6.2-1.8c-2.5-0.6-5.2-1.2-8-2c-2.9-0.8-5.5-1.9-8-3.4
			c-2.5-1.5-4.5-3.4-6.1-5.7c-1.6-2.3-2.4-5.3-2.4-8.9c0-4.3,1.2-8.1,3.5-11.3c2.3-3.2,5.6-5.7,9.8-7.5c4.2-1.8,9.1-2.7,14.6-2.7
			c6.6,0,12.1,1.4,16.6,4.2c4.5,2.8,7.8,6.7,9.8,11.9l-15.5,4.4c-0.5-1.3-1.4-2.3-2.5-3.2c-1.1-0.8-2.4-1.4-4-1.8
			c-1.6-0.4-3.1-0.6-4.6-0.6c-2.7,0-4.9,0.5-6.6,1.6s-2.6,2.6-2.6,4.5c0,1,0.3,1.9,1,2.6c0.6,0.7,1.5,1.3,2.7,1.8
			c1.1,0.5,2.5,0.9,4,1.2s3.2,0.8,4.9,1.3c2.9,0.7,5.9,1.6,8.8,2.5s5.6,2.1,8,3.6c2.4,1.5,4.4,3.5,5.9,5.9c1.5,2.5,2.3,5.6,2.5,9.4
			c0,4.1-1.2,7.7-3.5,11.1c-2.3,3.3-5.6,5.9-10,7.8c-4.3,1.9-9.6,2.8-15.8,2.8c-7.2,0-13.3-1.5-18.3-4.6c-5-3-8.3-7.8-9.9-14.4
			L1775.9,89.7L1775.9,89.7z"/>
		<path d="M1833.9,43.1V23.7h18.1v19.4h15.2v15.6H1852v28.1c0,3.7,0.7,6.2,2.2,7.7s3.4,2.2,5.8,2.3c2.4,0.1,4.8-0.1,7.3-0.4v15.2
			c-4.3,0.9-8.5,1.2-12.6,0.9c-4.1-0.3-7.6-1.4-10.7-3.2c-3.1-1.8-5.6-4.6-7.4-8.2c-1.8-3.6-2.8-8.4-2.8-14.2V58.7h-9.7V43
			L1833.9,43.1L1833.9,43.1z"/>
	</g>
</g>
</svg>
